Mazius Display-Extra Italic Bold.ufo
<glyph name="exclam" format="2">
  <advance width="288"/>
  <unicode hex="0021"/>
  <outline>
    <contour>
      <point x="121" y="200" type="curve"/>
      <point x="147" y="200" type="line"/>
      <point x="197" y="376"/>
      <point x="293" y="497"/>
      <point x="351" y="700" type="curve"/>
      <point x="195" y="700" type="line"/>
      <point x="137" y="501"/>
      <point x="172" y="378"/>
    </contour>
    <component base="period" xOffset="24"/>
  </outline>
</glyph>
<glyph name="numbersign" format="2">
  <advance width="672"/>
  <unicode hex="0023"/>
  <outline>
    <contour>
      <point x="245" y="-88" type="line"/>
      <point x="283" y="-88" type="line"/>
      <point x="695" y="628" type="line"/>
      <point x="657" y="628" type="line"/>
    </contour>
    <contour>
      <point x="-8" y="124" type="line"/>
      <point x="580" y="124" type="line"/>
      <point x="584" y="152" type="line"/>
      <point x="-4" y="152" type="line"/>
    </contour>
    <contour>
      <point x="-9" y="-88" type="line"/>
      <point x="29" y="-88" type="line"/>
      <point x="441" y="628" type="line"/>
      <point x="403" y="628" type="line"/>
    </contour>
    <contour>
      <point x="86" y="384" type="line"/>
      <point x="682" y="384" type="line"/>
      <point x="686" y="412" type="line"/>
      <point x="90" y="412" type="line"/>
    </contour>
  </outline>
</glyph>
<glyph name="percent" format="2">
  <advance width="682"/>
  <unicode hex="0025"/>
  <outline>
    <contour>
      <point x="432" y="-13" type="curve"/>
      <point x="536" y="6"/>
      <point x="617" y="95"/>
      <point x="617" y="189" type="curve" smooth="yes"/>
      <point x="617" y="254"/>
      <point x="577" y="299"/>
      <point x="516" y="301" type="curve"/>
      <point x="411" y="281"/>
      <point x="332" y="193"/>
      <point x="332" y="98" type="curve" smooth="yes"/>
      <point x="332" y="32"/>
      <point x="370" y="-11"/>
    </contour>
    <contour>
      <point x="445" y="4" type="curve"/>
      <point x="423" y="11"/>
      <point x="414" y="29"/>
      <point x="414" y="63" type="curve" smooth="yes"/>
      <point x="414" y="143"/>
      <point x="461" y="260"/>
      <point x="503" y="284" type="curve"/>
      <point x="527" y="275"/>
      <point x="535" y="260"/>
      <point x="535" y="227" type="curve" smooth="yes"/>
      <point x="535" y="146"/>
      <point x="488" y="28"/>
    </contour>
    <contour>
      <point x="104" y="-8" type="line"/>
      <point x="171" y="-8" type="line"/>
      <point x="646" y="708" type="line"/>
      <point x="579" y="708" type="line"/>
    </contour>
    <contour>
      <point x="229" y="400" type="curve"/>
      <point x="333" y="419"/>
      <point x="414" y="508"/>
      <point x="414" y="602" type="curve" smooth="yes"/>
      <point x="414" y="667"/>
      <point x="374" y="712"/>
      <point x="313" y="714" type="curve"/>
      <point x="208" y="694"/>
      <point x="129" y="606"/>
      <point x="129" y="511" type="curve" smooth="yes"/>
      <point x="129" y="445"/>
      <point x="167" y="402"/>
    </contour>
    <contour>
      <point x="242" y="417" type="curve"/>
      <point x="220" y="424"/>
      <point x="211" y="442"/>
      <point x="211" y="476" type="curve" smooth="yes"/>
      <point x="211" y="556"/>
      <point x="258" y="673"/>
      <point x="300" y="697" type="curve"/>
      <point x="324" y="688"/>
      <point x="332" y="673"/>
      <point x="332" y="640" type="curve" smooth="yes"/>
      <point x="332" y="559"/>
      <point x="285" y="441"/>
    </contour>
  </outline>
</glyph>
<glyph name="ampersand" format="2">
  <advance width="706"/>
  <unicode hex="0026"/>
  <outline>
    <contour>
      <point x="530" y="-18" type="line"/>
      <point x="579" y="12" type="line" name="_corner00"/>
      <point x="421" y="224"/>
      <point x="333" y="410"/>
      <point x="316" y="566" type="curve" smooth="yes"/>
      <point x="311" y="612"/>
      <point x="335" y="643"/>
      <point x="388" y="656" type="curve"/>
      <point x="529" y="577" type="line"/>
      <point x="565" y="581" type="line"/>
      <point x="594" y="660" type="line"/>
      <point x="553" y="692"/>
      <point x="502" y="714"/>
      <point x="468" y="714" type="curve"/>
      <point x="369" y="694"/>
      <point x="246" y="605"/>
      <point x="195" y="514" type="curve"/>
      <point x="210" y="366"/>
      <point x="317" y="124"/>
      <point x="421" y="4" type="curve"/>
    </contour>
    <contour>
      <point x="241" y="-14" type="curve"/>
      <point x="448" y="90"/>
      <point x="595" y="282"/>
      <point x="609" y="440" type="curve"/>
      <point x="571" y="491"/>
      <point x="527" y="527"/>
      <point x="488" y="542" type="curve"/>
      <point x="447" y="482" type="line"/>
      <point x="455" y="442" type="line"/>
      <point x="564" y="362" type="line"/>
      <point x="529" y="230"/>
      <point x="370" y="78"/>
      <point x="289" y="44" type="curve"/>
      <point x="226" y="52"/>
      <point x="161" y="107"/>
      <point x="153" y="184" type="curve" smooth="yes"/>
      <point x="141" y="299"/>
      <point x="181" y="354"/>
      <point x="265" y="406" type="curve"/>
      <point x="263" y="420" type="line"/>
      <point x="105" y="389"/>
      <point x="-3" y="281"/>
      <point x="10" y="160" type="curve" smooth="yes"/>
      <point x="21" y="54"/>
      <point x="125" y="-14"/>
    </contour>
  </outline>
</glyph>
<glyph name="quotesingle" format="2">
  <advance width="200"/>
  <unicode hex="0027"/>
  <outline>
    <contour>
      <point x="188" y="524" type="line"/>
      <point x="204" y="524" type="line"/>
      <point x="296" y="742" type="line"/>
      <point x="272" y="764" type="line"/>
      <point x="172" y="736" type="line"/>
    </contour>
  </outline>
</glyph>
<glyph name="parenleft" format="2">
  <advance width="312"/>
  <unicode hex="0028"/>
  <outline>
    <contour>
      <point x="204" y="-254" type="curve"/>
      <point x="214" y="-246" type="line"/>
      <point x="174" y="-118"/>
      <point x="160" y="-20"/>
      <point x="160" y="76" type="curve" smooth="yes"/>
      <point x="160" y="352"/>
      <point x="259" y="612"/>
      <point x="412" y="740" type="curve"/>
      <point x="404" y="754" type="line"/>
      <point x="174" y="637"/>
      <point x="12" y="378"/>
      <point x="12" y="128" type="curve" smooth="yes"/>
      <point x="12" y="-29"/>
      <point x="92" y="-188"/>
    </contour>
  </outline>
</glyph>
<glyph name="parenright" format="2">
  <advance width="380"/>
  <unicode hex="0029"/>
  <outline>
    <contour>
      <point x="-33" y="-254" type="line"/>
      <point x="197" y="-137"/>
      <point x="359" y="122"/>
      <point x="359" y="372" type="curve" smooth="yes"/>
      <point x="359" y="529"/>
      <point x="279" y="688"/>
      <point x="167" y="754" type="curve"/>
      <point x="157" y="746" type="line"/>
      <point x="197" y="618"/>
      <point x="211" y="520"/>
      <point x="211" y="424" type="curve" smooth="yes"/>
      <point x="211" y="148"/>
      <point x="112" y="-112"/>
      <point x="-41" y="-240" type="curve"/>
    </contour>
  </outline>
</glyph>
<glyph name="asterisk" format="2">
  <advance width="360"/>
  <unicode hex="002A"/>
  <outline>
    <contour>
      <point x="136" y="470" type="line"/>
      <point x="279" y="568" type="line"/>
      <point x="438" y="617" type="line"/>
      <point x="450" y="656" type="line"/>
      <point x="422" y="680" type="line"/>
      <point x="276" y="577" type="line"/>
      <point x="110" y="533" type="line"/>
      <point x="100" y="488" type="line"/>
    </contour>
    <contour>
      <point x="361" y="472" type="line"/>
      <point x="400" y="488" type="line"/>
      <point x="412" y="532" type="line"/>
      <point x="284" y="577" type="line"/>
      <point x="184" y="680" type="line"/>
      <point x="147" y="659" type="line"/>
      <point x="136" y="618" type="line"/>
      <point x="277" y="568" type="line"/>
    </contour>
    <contour>
      <point x="230" y="401" type="line"/>
      <point x="270" y="417" type="line"/>
      <point x="282" y="572" type="line"/>
      <point x="360" y="736" type="line"/>
      <point x="328" y="750" type="line"/>
      <point x="288" y="738" type="line"/>
      <point x="275" y="572" type="line"/>
      <point x="198" y="418" type="line"/>
    </contour>
  </outline>
</glyph>
<glyph name="plus" format="2">
  <advance width="457"/>
  <unicode hex="002B"/>
  <outline>
    <contour>
      <point x="29" y="207" type="line"/>
      <point x="405" y="207" type="line"/>
      <point x="422" y="265" type="line"/>
      <point x="46" y="265" type="line"/>
    </contour>
    <contour>
      <point x="134" y="44" type="line"/>
      <point x="206" y="44" type="line"/>
      <point x="316" y="426" type="line"/>
      <point x="244" y="426" type="line"/>
    </contour>
  </outline>
</glyph>
<glyph name="comma" format="2">
  <advance width="230"/>
  <unicode hex="002C"/>
  <outline>
    <contour>
      <point x="-5" y="-120" type="line"/>
      <point x="75" y="-68"/>
      <point x="119" y="0"/>
      <point x="143" y="112" type="curve"/>
      <point x="127" y="126" type="line"/>
      <point x="7" y="110" type="line"/>
      <point x="-5" y="79"/>
      <point x="-11" y="31"/>
      <point x="-9" y="-4" type="curve"/>
      <point x="76" y="-8" type="line"/>
      <point x="60" y="8" type="line"/>
      <point x="52" y="-32"/>
      <point x="28" y="-72"/>
      <point x="-16" y="-104" type="curve"/>
    </contour>
  </outline>
</glyph>
<glyph name="hyphen" format="2">
  <advance width="373"/>
  <unicode hex="002D"/>
  <outline>
    <contour>
      <point x="37" y="246" type="line"/>
      <point x="345" y="246" type="line"/>
      <point x="355" y="294" type="line"/>
      <point x="47" y="294" type="line"/>
    </contour>
  </outline>
</glyph>
<glyph name="period" format="2">
  <advance width="236"/>
  <unicode hex="002E"/>
  <outline>
    <contour>
      <point x="110" y="-10" type="line"/>
      <point x="152" y="114" type="line"/>
      <point x="136" y="128" type="line"/>
      <point x="8" y="112" type="line"/>
      <point x="-4" y="81"/>
      <point x="-10" y="31"/>
      <point x="-8" y="-4" type="curve"/>
    </contour>
  </outline>
</glyph>
<glyph name="slash" format="2">
  <advance width="424"/>
  <unicode hex="002F"/>
  <outline>
    <contour>
      <point x="-203" y="-250" type="line"/>
      <point x="-163" y="-250" type="line"/>
      <point x="534" y="750" type="line"/>
      <point x="495" y="750" type="line"/>
    </contour>
  </outline>
</glyph>
<glyph name="zero" format="2">
  <advance width="507"/>
  <unicode hex="0030"/>
  <outline>
    <contour>
      <point x="198" y="-14" type="curve" smooth="yes"/>
      <point x="326" y="-14"/>
      <point x="509" y="109"/>
      <point x="509" y="316" type="curve" smooth="yes"/>
      <point x="509" y="394"/>
      <point x="462" y="494"/>
      <point x="322" y="494" type="curve" smooth="yes"/>
      <point x="194" y="494"/>
      <point x="8" y="363"/>
      <point x="8" y="154" type="curve" smooth="yes"/>
      <point x="8" y="83"/>
      <point x="58" y="-14"/>
    </contour>
    <contour>
      <point x="218" y="69" type="curve" smooth="yes"/>
      <point x="131" y="69"/>
      <point x="96" y="138"/>
      <point x="96" y="194" type="curve" smooth="yes"/>
      <point x="96" y="307"/>
      <point x="207" y="411"/>
      <point x="302" y="411" type="curve" smooth="yes"/>
      <point x="389" y="411"/>
      <point x="421" y="339"/>
      <point x="421" y="286" type="curve" smooth="yes"/>
      <point x="421" y="152"/>
      <point x="305" y="69"/>
    </contour>
  </outline>
</glyph>
<glyph name="one" format="2">
  <advance width="423"/>
  <unicode hex="0031"/>
  <outline>
    <contour>
      <point x="68" y="0" type="line" name="_corner03"/>
      <point x="218" y="0" type="line" name="_corner00"/>
      <point x="368" y="480" type="line" name="_corner01"/>
      <point x="218" y="480" type="line" name="_corner02"/>
    </contour>
  </outline>
</glyph>
<glyph name="two" format="2">
  <advance width="467"/>
  <unicode hex="0032"/>
  <outline>
    <contour>
      <point x="267" y="339" type="curve" smooth="yes"/>
      <point x="267" y="211"/>
      <point x="135" y="110"/>
      <point x="51" y="49" type="curve"/>
      <point x="40" y="30" type="line"/>
      <point x="204" y="115"/>
      <point x="439" y="242"/>
      <point x="443" y="387" type="curve" smooth="yes"/>
      <point x="445" y="443"/>
      <point x="396" y="494"/>
      <point x="277" y="494" type="curve"/>
      <point x="187" y="480"/>
      <point x="110" y="434"/>
      <point x="55" y="390" type="curve"/>
      <point x="61" y="375" type="line"/>
      <point x="101" y="403"/>
      <point x="145" y="415"/>
      <point x="183" y="415" type="curve" smooth="yes"/>
      <point x="241" y="415"/>
      <point x="267" y="382"/>
    </contour>
    <contour>
      <point x="51" y="49" type="line"/>
      <point x="-10" y="6" type="line"/>
      <point x="-11" y="0" type="line"/>
      <point x="355" y="0" type="line"/>
      <point x="487" y="151" type="line"/>
      <point x="476" y="160" type="line"/>
      <point x="441" y="123" type="line"/>
      <point x="139" y="73" type="line"/>
    </contour>
  </outline>
</glyph>
<glyph name="three" format="2">
  <advance width="509"/>
  <unicode hex="0033"/>
  <outline>
    <contour>
      <point x="71" y="-234" type="curve"/>
      <point x="174" y="-197"/>
      <point x="416" y="-98"/>
      <point x="416" y="97" type="curve" smooth="yes"/>
      <point x="416" y="158"/>
      <point x="366" y="224"/>
      <point x="209" y="224" type="curve"/>
      <point x="96" y="123" type="line"/>
      <point x="205" y="132"/>
      <point x="263" y="83"/>
      <point x="263" y="8" type="curve" smooth="yes"/>
      <point x="263" y="-88"/>
      <point x="210" y="-164"/>
      <point x="149" y="-164" type="curve" smooth="yes"/>
      <point x="87" y="-164"/>
      <point x="46" y="-102"/>
      <point x="64" y="-18" type="curve"/>
      <point x="45" y="-14" type="line"/>
      <point x="-69" y="-84" type="line"/>
      <point x="-74" y="-158"/>
      <point x="-34" y="-234"/>
    </contour>
    <contour>
      <point x="90" y="111" type="line"/>
      <point x="496" y="480" type="line"/>
      <point x="187" y="480" type="line"/>
      <point x="31" y="322" type="line"/>
      <point x="49" y="307" type="line"/>
      <point x="107" y="365" type="line"/>
      <point x="324" y="364" type="line"/>
      <point x="71" y="127" type="line"/>
    </contour>
  </outline>
</glyph>
<glyph name="four" format="2">
  <advance width="599"/>
  <unicode hex="0034"/>
  <outline>
    <contour>
      <point x="-41" y="-10" type="curve"/>
      <point x="274" y="-5" type="line"/>
      <point x="196" y="-254" type="line"/>
      <point x="329" y="-221" type="line"/>
      <point x="338" y="-214" type="line"/>
      <point x="405" y="-3" type="line"/>
      <point x="504" y="-1" type="line"/>
      <point x="512" y="24" type="line"/>
      <point x="412" y="22" type="line"/>
      <point x="454" y="154" type="line"/>
      <point x="435" y="170" type="line"/>
      <point x="322" y="147" type="line"/>
      <point x="282" y="20" type="line"/>
      <point x="122" y="17" type="line"/>
      <point x="552" y="479" type="line"/>
      <point x="550" y="490" type="line"/>
      <point x="391" y="490" type="line"/>
      <point x="294" y="356"/>
      <point x="122" y="167"/>
    </contour>
  </outline>
</glyph>
<glyph name="five" format="2">
  <advance width="542"/>
  <unicode hex="0035"/>
  <outline>
    <contour>
      <point x="99" y="-234" type="curve"/>
      <point x="201" y="-194"/>
      <point x="432" y="-116"/>
      <point x="432" y="77" type="curve" smooth="yes"/>
      <point x="432" y="166"/>
      <point x="363" y="254"/>
      <point x="168" y="254" type="curve"/>
      <point x="56" y="141" type="line"/>
      <point x="180" y="152"/>
      <point x="287" y="91"/>
      <point x="287" y="-6" type="curve" smooth="yes"/>
      <point x="287" y="-105"/>
      <point x="229" y="-164"/>
      <point x="174" y="-164" type="curve" smooth="yes"/>
      <point x="112" y="-164"/>
      <point x="69" y="-102"/>
      <point x="83" y="-18" type="curve"/>
      <point x="64" y="-14" type="line"/>
      <point x="-46" y="-84" type="line"/>
      <point x="-49" y="-158"/>
      <point x="-6" y="-234"/>
    </contour>
    <contour>
      <point x="47" y="141" type="line"/>
      <point x="60" y="141" type="line"/>
      <point x="86" y="164" type="line"/>
      <point x="159" y="365" type="line"/>
      <point x="424" y="363" type="line"/>
      <point x="509" y="476" type="line"/>
      <point x="507" y="480" type="line"/>
      <point x="162" y="480" type="line"/>
    </contour>
  </outline>
</glyph>
<glyph name="six" format="2">
  <advance width="584"/>
  <unicode hex="0036"/>
  <outline>
    <contour>
      <point x="266" y="-21" type="curve"/>
      <point x="312" y="-7"/>
      <point x="565" y="116"/>
      <point x="565" y="331" type="curve" smooth="yes"/>
      <point x="565" y="390"/>
      <point x="513" y="471"/>
      <point x="395" y="446" type="curve"/>
      <point x="383" y="439"/>
      <point x="257" y="364"/>
      <point x="209" y="295" type="curve"/>
      <point x="224" y="290" type="line"/>
      <point x="250" y="322"/>
      <point x="286" y="338"/>
      <point x="320" y="338" type="curve" smooth="yes"/>
      <point x="368" y="338"/>
      <point x="411" y="306"/>
      <point x="411" y="243" type="curve" smooth="yes"/>
      <point x="411" y="108"/>
      <point x="352" y="22"/>
      <point x="297" y="23" type="curve" smooth="yes"/>
      <point x="182" y="25"/>
      <point x="186" y="142"/>
      <point x="186" y="193" type="curve" smooth="yes"/>
      <point x="186" y="408"/>
      <point x="455" y="702"/>
      <point x="609" y="747" type="curve"/>
      <point x="601" y="767" type="line"/>
      <point x="381" y="668"/>
      <point x="32" y="407"/>
      <point x="32" y="142" type="curve" smooth="yes"/>
      <point x="32" y="78"/>
      <point x="52" y="-64"/>
    </contour>
  </outline>
</glyph>
<glyph name="seven" format="2">
  <advance width="490"/>
  <unicode hex="0037"/>
  <outline>
    <contour>
      <point x="146" y="-238" type="line"/>
      <point x="522" y="480" type="line"/>
      <point x="161" y="480" type="line"/>
      <point x="13" y="293" type="line"/>
      <point x="32" y="281" type="line"/>
      <point x="101" y="364" type="line"/>
      <point x="416" y="363" type="line"/>
      <point x="-12" y="-236" type="line"/>
    </contour>
  </outline>
</glyph>
<glyph name="eight" format="2">
  <advance width="555"/>
  <unicode hex="0038"/>
  <outline>
    <contour>
      <point x="229" y="-20" type="curve"/>
      <point x="300" y="-11"/>
      <point x="504" y="57"/>
      <point x="504" y="232" type="curve" smooth="yes"/>
      <point x="504" y="300"/>
      <point x="450" y="342"/>
      <point x="389" y="394" type="curve"/>
      <point x="437" y="394"/>
      <point x="599" y="475"/>
      <point x="599" y="609" type="curve" smooth="yes"/>
      <point x="599" y="671"/>
      <point x="535" y="712"/>
      <point x="442" y="712" type="curve"/>
      <point x="406" y="706"/>
      <point x="152" y="662"/>
      <point x="152" y="470" type="curve" smooth="yes"/>
      <point x="152" y="421"/>
      <point x="183" y="374"/>
      <point x="221" y="329" type="curve"/>
      <point x="157" y="306"/>
      <point x="11" y="234"/>
      <point x="11" y="97" type="curve" smooth="yes"/>
      <point x="11" y="23"/>
      <point x="111" y="-20"/>
    </contour>
    <contour>
      <point x="142" y="103" type="curve" smooth="yes"/>
      <point x="142" y="179"/>
      <point x="188" y="275"/>
      <point x="232" y="316" type="curve"/>
      <point x="288" y="250"/>
      <point x="354" y="186"/>
      <point x="354" y="119" type="curve" smooth="yes"/>
      <point x="354" y="52"/>
      <point x="280" y="3"/>
      <point x="225" y="3" type="curve" smooth="yes"/>
      <point x="155" y="3"/>
      <point x="142" y="72"/>
    </contour>
    <contour>
      <point x="297" y="537" type="curve" smooth="yes"/>
      <point x="297" y="634"/>
      <point x="367" y="685"/>
      <point x="423" y="685" type="curve" smooth="yes"/>
      <point x="480" y="685"/>
      <point x="487" y="639"/>
      <point x="487" y="617" type="curve" smooth="yes"/>
      <point x="487" y="512"/>
      <point x="423" y="438"/>
      <point x="379" y="403" type="curve"/>
      <point x="350" y="425"/>
      <point x="297" y="476"/>
    </contour>
  </outline>
</glyph>
<glyph name="nine" format="2">
  <advance width="585"/>
  <unicode hex="0039"/>
  <outline>
    <contour>
      <point x="-15" y="-290" type="line"/>
      <point x="205" y="-194"/>
      <point x="554" y="70"/>
      <point x="554" y="335" type="curve" smooth="yes"/>
      <point x="554" y="399"/>
      <point x="534" y="541"/>
      <point x="320" y="498" type="curve"/>
      <point x="274" y="484"/>
      <point x="21" y="361"/>
      <point x="21" y="146" type="curve" smooth="yes"/>
      <point x="21" y="87"/>
      <point x="73" y="6"/>
      <point x="191" y="31" type="curve"/>
      <point x="203" y="38"/>
      <point x="329" y="113"/>
      <point x="377" y="182" type="curve"/>
      <point x="362" y="187" type="line"/>
      <point x="336" y="155"/>
      <point x="299" y="139"/>
      <point x="265" y="139" type="curve" smooth="yes"/>
      <point x="218" y="139"/>
      <point x="175" y="171"/>
      <point x="175" y="234" type="curve" smooth="yes"/>
      <point x="175" y="369"/>
      <point x="234" y="455"/>
      <point x="289" y="454" type="curve" smooth="yes"/>
      <point x="404" y="452"/>
      <point x="401" y="335"/>
      <point x="401" y="284" type="curve" smooth="yes"/>
      <point x="401" y="70"/>
      <point x="146" y="-204"/>
      <point x="-21" y="-270" type="curve"/>
    </contour>
  </outline>
</glyph>
<glyph name="greater" format="2">
  <advance width="437"/>
  <unicode hex="003E"/>
  <outline>
    <contour>
      <point x="38" y="126" type="line"/>
      <point x="56" y="75" type="line"/>
      <point x="386" y="210" type="line"/>
      <point x="397" y="251" type="line"/>
      <point x="102" y="413" type="line"/>
      <point x="78" y="368" type="line"/>
      <point x="314" y="236" type="line"/>
    </contour>
  </outline>
</glyph>
<glyph name="question" format="2">
  <advance width="372"/>
  <unicode hex="003F"/>
  <outline>
    <contour>
      <point x="158" y="200" type="line"/>
      <point x="182" y="200" type="line"/>
      <point x="266" y="372" type="line"/>
      <point x="383" y="397"/>
      <point x="466" y="476"/>
      <point x="466" y="562" type="curve" smooth="yes"/>
      <point x="466" y="651"/>
      <point x="383" y="714"/>
      <point x="266" y="714" type="curve"/>
      <point x="84" y="598" type="line"/>
      <point x="94" y="580" type="line"/>
      <point x="138" y="608"/>
      <point x="180" y="632"/>
      <point x="220" y="648" type="curve"/>
      <point x="276" y="640"/>
      <point x="314" y="592"/>
      <point x="314" y="520" type="curve" smooth="yes"/>
      <point x="314" y="433"/>
      <point x="258" y="364"/>
      <point x="162" y="336" type="curve"/>
    </contour>
    <component base="period" xOffset="88"/>
  </outline>
</glyph>
<glyph name="at" format="2">
  <advance width="895"/>
  <unicode hex="0040"/>
  <outline>
    <contour>
      <point x="362" y="-264" type="curve"/>
      <point x="487" y="-190"/>
      <point x="602" y="-101"/>
      <point x="685" y="-12" type="curve"/>
      <point x="674" y="-3" type="line"/>
      <point x="581" y="-80"/>
      <point x="500" y="-147"/>
      <point x="446" y="-170" type="curve"/>
      <point x="235" y="-170"/>
      <point x="124" y="-27"/>
      <point x="124" y="135" type="curve" smooth="yes"/>
      <point x="124" y="418"/>
      <point x="362" y="613"/>
      <point x="566" y="633" type="curve"/>
      <point x="677" y="615"/>
      <point x="788" y="534"/>
      <point x="788" y="380" type="curve" smooth="yes"/>
      <point x="788" y="260"/>
      <point x="718" y="138"/>
      <point x="581" y="39" type="curve"/>
      <point x="695" y="448" type="line"/>
      <point x="647" y="476"/>
      <point x="581" y="496"/>
      <point x="521" y="504" type="curve"/>
      <point x="353" y="452"/>
      <point x="201" y="304"/>
      <point x="201" y="140" type="curve" smooth="yes"/>
      <point x="201" y="54"/>
      <point x="238" y="-6"/>
      <point x="312" y="-14" type="curve"/>
      <point x="399" y="49"/>
      <point x="459" y="208"/>
      <point x="539" y="416" type="curve"/>
      <point x="547" y="414" type="line"/>
      <point x="436" y="24" type="line"/>
      <point x="539" y="-18" type="line"/>
      <point x="809" y="155"/>
      <point x="907" y="289"/>
      <point x="907" y="434" type="curve" smooth="yes"/>
      <point x="907" y="599"/>
      <point x="752" y="714"/>
      <point x="593" y="714" type="curve"/>
      <point x="253" y="582"/>
      <point x="1" y="367"/>
      <point x="1" y="89" type="curve" smooth="yes"/>
      <point x="1" y="-134"/>
      <point x="156" y="-264"/>
    </contour>
    <contour>
      <point x="371" y="96" type="curve"/>
      <point x="348" y="108"/>
      <point x="344" y="143"/>
      <point x="344" y="184" type="curve" smooth="yes"/>
      <point x="344" y="317"/>
      <point x="391" y="424"/>
      <point x="471" y="464" type="curve"/>
      <point x="493" y="460"/>
      <point x="511" y="450"/>
      <point x="527" y="436" type="curve"/>
      <point x="487" y="328"/>
      <point x="435" y="180"/>
    </contour>
  </outline>
</glyph>
<glyph name="A" format="2">
  <advance width="673"/>
  <unicode hex="0041"/>
  <anchor x="520" y="0" name="ogonek"/>
  <anchor x="552" y="700" name="top"/>
  <outline>
    <contour>
      <point x="496" y="-18" type="line"/>
      <point x="520" y="0" type="line" name="_corner00"/>
      <point x="680" y="672" type="line"/>
      <point x="656" y="700" type="line"/>
      <point x="530" y="700" type="line" name="_corner03"/>
      <point x="-29" y="0" type="line" name="_corner01"/>
      <point x="3" y="0" type="line" name="_corner02"/>
      <point x="518" y="646" type="line"/>
      <point x="526" y="644" type="line"/>
      <point x="375" y="16" type="line"/>
    </contour>
    <contour>
      <point x="160" y="236" type="curve"/>
      <point x="448" y="236" type="line"/>
      <point x="452" y="262" type="line"/>
      <point x="180" y="262" type="line"/>
      <point x="102" y="376" type="line"/>
      <point x="62" y="372" type="line"/>
      <point x="10" y="288" type="line"/>
      <point x="58" y="254"/>
      <point x="116" y="240"/>
    </contour>
  </outline>
</glyph>
<glyph name="B" format="2">
  <advance width="660"/>
  <unicode hex="0042"/>
  <outline>
    <contour>
      <point x="40" y="0" type="line" name="_corner01"/>
      <point x="348" y="0" type="line"/>
      <point x="512" y="24"/>
      <point x="620" y="100"/>
      <point x="620" y="212" type="curve" smooth="yes"/>
      <point x="620" y="305"/>
      <point x="540" y="368"/>
      <point x="415" y="368" type="curve"/>
      <point x="415" y="376" type="line"/>
      <point x="563" y="388"/>
      <point x="650" y="468"/>
      <point x="650" y="564" type="curve" smooth="yes"/>
      <point x="650" y="644"/>
      <point x="588" y="700"/>
      <point x="500" y="700" type="curve" smooth="yes"/>
      <point x="240" y="700" type="line" name="_corner00"/>
    </contour>
    <contour>
      <point x="190" y="0" type="line"/>
      <point x="390" y="700" type="line"/>
      <point x="361" y="668" type="line"/>
      <point x="375" y="672"/>
      <point x="388" y="674"/>
      <point x="400" y="674" type="curve" smooth="yes"/>
      <point x="456" y="674"/>
      <point x="494" y="626"/>
      <point x="494" y="552" type="curve" smooth="yes"/>
      <point x="494" y="474"/>
      <point x="448" y="406"/>
      <point x="376" y="380" type="curve"/>
      <point x="340" y="380"/>
      <point x="305" y="384"/>
      <point x="269" y="396" type="curve"/>
      <point x="272" y="356" type="line"/>
      <point x="298" y="358"/>
      <point x="323" y="360"/>
      <point x="336" y="360" type="curve" smooth="yes"/>
      <point x="414" y="360"/>
      <point x="456" y="301"/>
      <point x="456" y="208" type="curve" smooth="yes"/>
      <point x="456" y="118"/>
      <point x="421" y="48"/>
      <point x="354" y="28" type="curve"/>
      <point x="298" y="28"/>
      <point x="233" y="42"/>
      <point x="188" y="64" type="curve"/>
    </contour>
  </outline>
</glyph>
<glyph name="C" format="2">
  <advance width="576"/>
  <unicode hex="0043"/>
  <anchor x="260" y="0" name="bottom"/>
  <anchor x="440" y="700" name="top"/>
  <outline>
    <contour>
      <point x="312" y="-14" type="curve"/>
      <point x="546" y="146" type="line"/>
      <point x="532" y="164" type="line"/>
      <point x="476" y="124"/>
      <point x="436" y="92"/>
      <point x="372" y="60" type="curve"/>
      <point x="260" y="68"/>
      <point x="204" y="156"/>
      <point x="204" y="272" type="curve" smooth="yes"/>
      <point x="204" y="453"/>
      <point x="294" y="605"/>
      <point x="430" y="692" type="curve"/>
      <point x="490" y="644"/>
      <point x="532" y="552"/>
      <point x="544" y="428" type="curve"/>
      <point x="560" y="428" type="line"/>
      <point x="624" y="632" type="line"/>
      <point x="568" y="684"/>
      <point x="502" y="714"/>
      <point x="444" y="714" type="curve"/>
      <point x="216" y="658"/>
      <point x="44" y="452"/>
      <point x="44" y="236" type="curve" smooth="yes"/>
      <point x="44" y="84"/>
      <point x="142" y="-14"/>
    </contour>
  </outline>
</glyph>
<glyph name="D" format="2">
  <advance width="682"/>
  <unicode hex="0044"/>
  <anchor x="464" y="700" name="top"/>
  <outline>
    <contour>
      <point x="40" y="0" type="line" name="_corner01"/>
      <point x="307" y="0" type="line"/>
      <point x="539" y="60"/>
      <point x="698" y="252"/>
      <point x="698" y="468" type="curve" smooth="yes"/>
      <point x="698" y="604"/>
      <point x="601" y="700"/>
      <point x="464" y="700" type="curve" smooth="yes"/>
      <point x="240" y="700" type="line" name="_corner00"/>
    </contour>
    <contour>
      <point x="190" y="0" type="line"/>
      <point x="390" y="700" type="line"/>
      <point x="352" y="656" type="line"/>
      <point x="379" y="666"/>
      <point x="419" y="673"/>
      <point x="448" y="676" type="curve"/>
      <point x="500" y="652"/>
      <point x="534" y="576"/>
      <point x="534" y="472" type="curve" smooth="yes"/>
      <point x="534" y="288"/>
      <point x="450" y="113"/>
      <point x="323" y="24" type="curve"/>
      <point x="267" y="30"/>
      <point x="229" y="40"/>
      <point x="189" y="64" type="curve"/>
    </contour>
  </outline>
</glyph>
<glyph name="E" format="2">
  <advance width="532"/>
  <unicode hex="0045"/>
  <anchor x="288" y="0" name="ogonek"/>
  <anchor x="400" y="700" name="top"/>
  <outline>
    <contour>
      <point x="268" y="-14" type="curve"/>
      <point x="504" y="152" type="line"/>
      <point x="492" y="170" type="line"/>
      <point x="439" y="131"/>
      <point x="381" y="90"/>
      <point x="324" y="60" type="curve"/>
      <point x="227" y="60"/>
      <point x="176" y="109"/>
      <point x="176" y="188" type="curve" smooth="yes"/>
      <point x="176" y="266"/>
      <point x="223" y="352"/>
      <point x="316" y="408" type="curve"/>
      <point x="308" y="420" type="line"/>
      <point x="132" y="376"/>
      <point x="10" y="280"/>
      <point x="10" y="160" type="curve" smooth="yes"/>
      <point x="10" y="56"/>
      <point x="120" y="-14"/>
    </contour>
    <contour>
      <point x="412" y="356" type="curve"/>
      <point x="416" y="372" type="line"/>
      <point x="344" y="417"/>
      <point x="288" y="470"/>
      <point x="288" y="539" type="curve" smooth="yes"/>
      <point x="288" y="603"/>
      <point x="329" y="661"/>
      <point x="393" y="686" type="curve"/>
      <point x="462" y="635"/>
      <point x="507" y="542"/>
      <point x="507" y="448" type="curve"/>
      <point x="523" y="448" type="line"/>
      <point x="584" y="644" type="line"/>
      <point x="535" y="681"/>
      <point x="462" y="706"/>
      <point x="396" y="710" type="curve"/>
      <point x="241" y="701"/>
      <point x="132" y="630"/>
      <point x="132" y="540" type="curve" smooth="yes"/>
      <point x="132" y="454"/>
      <point x="228" y="372"/>
    </contour>
  </outline>
</glyph>
<glyph name="F" format="2">
  <advance width="576"/>
  <unicode hex="0046"/>
  <outline>
    <contour>
      <point x="40" y="0" type="line" name="_corner01"/>
      <point x="190" y="0" type="line" name="_corner02"/>
      <point x="390" y="700" type="line"/>
      <point x="240" y="700" type="line" name="_corner00"/>
    </contour>
    <contour>
      <point x="432" y="176" type="line"/>
      <point x="448" y="176" type="line"/>
      <point x="528" y="476" type="line"/>
      <point x="512" y="478" type="line"/>
      <point x="413" y="355" type="line"/>
      <point x="272" y="355" type="line"/>
      <point x="264" y="329" type="line"/>
      <point x="409" y="329" type="line"/>
    </contour>
    <contour>
      <point x="614" y="460" type="line"/>
      <point x="630" y="460" type="line"/>
      <point x="696" y="700" type="line"/>
      <point x="370" y="700" type="line"/>
      <point x="364" y="672" type="line"/>
      <point x="576" y="672" type="line"/>
    </contour>
  </outline>
</glyph>
<glyph name="G" format="2">
  <advance width="604"/>
  <unicode hex="0047"/>
  <anchor x="227" y="0" name="bottom"/>
  <anchor x="444" y="700" name="top"/>
  <outline>
    <contour>
      <point x="298" y="-14" type="curve"/>
      <point x="524" y="134" type="line"/>
      <point x="510" y="152" type="line"/>
      <point x="454" y="112"/>
      <point x="422" y="92"/>
      <point x="358" y="60" type="curve"/>
      <point x="262" y="64"/>
      <point x="202" y="144"/>
      <point x="202" y="268" type="curve" smooth="yes"/>
      <point x="202" y="449"/>
      <point x="292" y="605"/>
      <point x="428" y="692" type="curve"/>
      <point x="488" y="644"/>
      <point x="530" y="552"/>
      <point x="542" y="428" type="curve"/>
      <point x="558" y="428" type="line"/>
      <point x="622" y="632" type="line"/>
      <point x="566" y="684"/>
      <point x="500" y="714"/>
      <point x="442" y="714" type="curve"/>
      <point x="214" y="658"/>
      <point x="42" y="444"/>
      <point x="42" y="228" type="curve" smooth="yes"/>
      <point x="42" y="81"/>
      <point x="142" y="-14"/>
    </contour>
    <contour>
      <point x="172" y="-264" type="curve"/>
      <point x="283" y="-234"/>
      <point x="413" y="-138"/>
      <point x="484" y="-44" type="curve"/>
      <point x="582" y="324" type="line"/>
      <point x="440" y="324" type="line" name="_corner00"/>
      <point x="320" y="-128" type="line" smooth="yes"/>
      <point x="313" y="-156"/>
      <point x="294" y="-183"/>
      <point x="272" y="-196" type="curve"/>
      <point x="144" y="-112" type="line"/>
      <point x="104" y="-116" type="line"/>
      <point x="44" y="-212" type="line"/>
      <point x="83" y="-244"/>
      <point x="133" y="-264"/>
    </contour>
  </outline>
</glyph>
<glyph name="H" format="2">
  <advance width="772"/>
  <unicode hex="0048"/>
  <outline>
    <contour>
      <point x="270" y="351" type="line"/>
      <point x="566" y="351" type="line"/>
      <point x="574" y="377" type="line"/>
      <point x="278" y="377" type="line"/>
    </contour>
    <component base="I" xOffset="-2"/>
    <component base="I" xOffset="404"/>
  </outline>
</glyph>
<glyph name="I" format="2">
  <advance width="370"/>
  <unicode hex="0049"/>
  <anchor x="192" y="0" name="ogonek"/>
  <anchor x="320" y="700" name="top"/>
  <outline>
    <contour>
      <point x="42" y="0" type="line" name="_corner03"/>
      <point x="192" y="0" type="line" name="_corner00"/>
      <point x="392" y="700" type="line" name="_corner01"/>
      <point x="242" y="700" type="line" name="_corner02"/>
    </contour>
  </outline>
</glyph>
<glyph name="J" format="2">
  <advance width="380"/>
  <unicode hex="004A"/>
  <outline>
    <contour>
      <point x="-150" y="-264" type="curve"/>
      <point x="-34" y="-233"/>
      <point x="104" y="-139"/>
      <point x="178" y="-40" type="curve"/>
      <point x="390" y="700" type="line" name="_corner00"/>
      <point x="240" y="700" type="line" name="_corner01"/>
      <point x="6" y="-116" type="line" smooth="yes"/>
      <point x="-5" y="-154"/>
      <point x="-29" y="-183"/>
      <point x="-50" y="-196" type="curve"/>
      <point x="-178" y="-104" type="line"/>
      <point x="-222" y="-112" type="line"/>
      <point x="-278" y="-208" type="line"/>
      <point x="-232" y="-245"/>
      <point x="-188" y="-264"/>
    </contour>
  </outline>
</glyph>
<glyph name="K" format="2">
  <advance width="660"/>
  <unicode hex="004B"/>
  <anchor x="308" y="0" name="bottom"/>
  <outline>
    <contour>
      <point x="188" y="-4" type="line"/>
      <point x="296" y="236"/>
      <point x="340" y="346"/>
      <point x="452" y="510" type="curve"/>
      <point x="524" y="566"/>
      <point x="644" y="592"/>
      <point x="724" y="608" type="curve"/>
      <point x="732" y="656" type="line"/>
      <point x="596" y="718" type="line"/>
      <point x="476" y="690"/>
      <point x="351" y="400"/>
      <point x="186" y="48" type="curve"/>
      <point x="178" y="50" type="line"/>
      <point x="360" y="676" type="line"/>
      <point x="340" y="700" type="line"/>
      <point x="218" y="700" type="line" name="_corner00"/>
      <point x="18" y="2" type="line"/>
    </contour>
    <contour>
      <point x="527" y="-18" type="line"/>
      <point x="573" y="12" type="line" name="_corner01"/>
      <point x="464" y="392" type="line"/>
      <point x="372" y="371" type="line"/>
      <point x="369" y="383" type="line"/>
      <point x="332" y="328" type="line"/>
      <point x="421" y="4" type="line"/>
    </contour>
  </outline>
</glyph>
<glyph name="L" format="2">
  <advance width="600"/>
  <unicode hex="004C"/>
  <anchor x="296" y="0" name="bottom"/>
  <anchor x="380" y="700" name="top"/>
  <anchor x="428" y="490" name="topright"/>
  <outline>
    <contour>
      <point x="40" y="0" type="line" name="_corner02"/>
      <point x="190" y="0" type="line"/>
      <point x="390" y="700" type="line" name="_corner00"/>
      <point x="240" y="700" type="line" name="_corner01"/>
    </contour>
    <contour>
      <point x="170" y="0" type="line"/>
      <point x="513" y="0" type="line"/>
      <point x="576" y="234" type="line"/>
      <point x="560" y="238" type="line"/>
      <point x="400" y="28" type="line"/>
      <point x="178" y="28" type="line"/>
    </contour>
  </outline>
</glyph>
<glyph name="M" format="2">
  <advance width="932"/>
  <unicode hex="004D"/>
  <outline>
    <contour>
      <point x="30" y="0" type="line" name="_corner02"/>
      <point x="56" y="0" type="line" name="_corner00"/>
      <point x="244" y="660" type="line"/>
      <point x="252" y="660" type="line"/>
      <point x="304" y="0" type="line"/>
      <point x="404" y="0" type="line"/>
      <point x="786" y="658" type="line"/>
      <point x="794" y="656" type="line"/>
      <point x="606" y="0" type="line" name="_corner05"/>
      <point x="756" y="0" type="line" name="_corner03"/>
      <point x="956" y="700" type="line" name="_corner04"/>
      <point x="784" y="700" type="line"/>
      <point x="454" y="136" type="line"/>
      <point x="446" y="136" type="line"/>
      <point x="400" y="700" type="line"/>
      <point x="230" y="700" type="line" name="_corner01"/>
    </contour>
  </outline>
</glyph>
<glyph name="N" format="2">
  <advance width="670"/>
  <unicode hex="004E"/>
  <anchor x="304" y="0" name="bottom"/>
  <anchor x="474" y="700" name="top"/>
  <outline>
    <contour>
      <point x="30" y="0" type="line" name="_corner04"/>
      <point x="56" y="0" type="line" name="_corner00"/>
      <point x="244" y="660" type="line"/>
      <point x="252" y="660" type="line"/>
      <point x="424" y="0" type="line"/>
      <point x="538" y="0" type="line"/>
      <point x="738" y="700" type="line" name="_corner01"/>
      <point x="712" y="700" type="line" name="_corner02"/>
      <point x="554" y="144" type="line"/>
      <point x="546" y="144" type="line"/>
      <point x="400" y="700" type="line"/>
      <point x="230" y="700" type="line" name="_corner03"/>
    </contour>
  </outline>
</glyph>
<glyph name="O" format="2">
  <advance width="648"/>
  <unicode hex="004F"/>
  <anchor x="463" y="700" name="top"/>
  <outline>
    <contour>
      <point x="265" y="-14" type="curve"/>
      <point x="497" y="34"/>
      <point x="666" y="256"/>
      <point x="666" y="476" type="curve" smooth="yes"/>
      <point x="666" y="612"/>
      <point x="573" y="710"/>
      <point x="441" y="714" type="curve"/>
      <point x="209" y="662"/>
      <point x="44" y="448"/>
      <point x="44" y="228" type="curve" smooth="yes"/>
      <point x="44" y="88"/>
      <point x="133" y="-10"/>
    </contour>
    <contour>
      <point x="285" y="10" type="curve"/>
      <point x="241" y="38"/>
      <point x="208" y="112"/>
      <point x="208" y="224" type="curve" smooth="yes"/>
      <point x="208" y="432"/>
      <point x="293" y="606"/>
      <point x="425" y="690" type="curve"/>
      <point x="469" y="666"/>
      <point x="501" y="588"/>
      <point x="501" y="480" type="curve" smooth="yes"/>
      <point x="501" y="272"/>
      <point x="417" y="94"/>
    </contour>
  </outline>
</glyph>
<glyph name="P" format="2">
  <advance width="596"/>
  <unicode hex="0050"/>
  <outline>
    <contour>
      <point x="40" y="0" type="line" name="_corner02"/>
      <point x="190" y="0" type="line" name="_corner00"/>
      <point x="390" y="700" type="line"/>
      <point x="361" y="666" type="line"/>
      <point x="379" y="671"/>
      <point x="396" y="674"/>
      <point x="414" y="674" type="curve" smooth="yes"/>
      <point x="480" y="674"/>
      <point x="522" y="617"/>
      <point x="522" y="528" type="curve" smooth="yes"/>
      <point x="522" y="430"/>
      <point x="470" y="348"/>
      <point x="390" y="320" type="curve"/>
      <point x="346" y="320"/>
      <point x="309" y="328"/>
      <point x="269" y="344" type="curve"/>
      <point x="254" y="294" type="line"/>
      <point x="410" y="294" type="line"/>
      <point x="570" y="326"/>
      <point x="682" y="424"/>
      <point x="682" y="540" type="curve" smooth="yes"/>
      <point x="682" y="634"/>
      <point x="611" y="700"/>
      <point x="510" y="700" type="curve" smooth="yes"/>
      <point x="240" y="700" type="line" name="_corner01"/>
    </contour>
  </outline>
</glyph>
<glyph name="Q" format="2">
  <advance width="648"/>
  <unicode hex="0051"/>
  <outline>
    <contour>
      <point x="-52" y="-148" type="line"/>
      <point x="339" y="8" type="line"/>
      <point x="288" y="8" type="line"/>
      <point x="-62" y="-124" type="line"/>
    </contour>
    <contour>
      <point x="328" y="-266" type="line"/>
      <point x="392" y="-228" type="line" name="_corner00"/>
      <point x="392" y="-195" type="line"/>
      <point x="343" y="-129"/>
      <point x="284" y="-73"/>
      <point x="200" y="-40" type="curve"/>
      <point x="16" y="-112" type="line"/>
    </contour>
    <component base="O"/>
  </outline>
</glyph>
<glyph name="S" format="2">
  <advance width="464"/>
  <unicode hex="0053"/>
  <anchor x="176" y="0" name="bottom"/>
  <anchor x="371" y="700" name="top"/>
  <outline>
    <contour>
      <point x="124" y="-14" type="curve"/>
      <point x="300" y="18"/>
      <point x="424" y="110"/>
      <point x="424" y="222" type="curve" smooth="yes"/>
      <point x="424" y="386"/>
      <point x="192" y="468"/>
      <point x="192" y="588" type="curve"/>
      <point x="209" y="615"/>
      <point x="238" y="636"/>
      <point x="262" y="644" type="curve"/>
      <point x="464" y="560" type="line"/>
      <point x="500" y="568" type="line"/>
      <point x="528" y="676" type="line"/>
      <point x="500" y="696"/>
      <point x="428" y="714"/>
      <point x="388" y="714" type="curve"/>
      <point x="224" y="686"/>
      <point x="122" y="586"/>
      <point x="122" y="478" type="curve" smooth="yes"/>
      <point x="122" y="318"/>
      <point x="346" y="240"/>
      <point x="346" y="124" type="curve"/>
      <point x="324" y="92"/>
      <point x="285" y="66"/>
      <point x="246" y="56" type="curve"/>
      <point x="62" y="160" type="line"/>
      <point x="22" y="152" type="line"/>
      <point x="-34" y="56" type="line"/>
      <point x="10" y="16"/>
      <point x="76" y="-14"/>
    </contour>
  </outline>
</glyph>
<glyph name="T" format="2">
  <advance width="591"/>
  <unicode hex="0054"/>
  <anchor x="232" y="0" name="bottom"/>
  <anchor x="428" y="700" name="top"/>
  <outline>
    <contour>
      <point x="156" y="0" type="line" name="_corner01"/>
      <point x="306" y="0" type="line" name="_corner00"/>
      <point x="506" y="700" type="line"/>
      <point x="356" y="700" type="line"/>
    </contour>
    <contour>
      <point x="92" y="460" type="line"/>
      <point x="108" y="458" type="line"/>
      <point x="240" y="672" type="line"/>
      <point x="594" y="672" type="line"/>
      <point x="633" y="460" type="line"/>
      <point x="649" y="460" type="line"/>
      <point x="711" y="700" type="line"/>
      <point x="131" y="700" type="line"/>
    </contour>
  </outline>
</glyph>
<glyph name="U" format="2">
  <advance width="656"/>
  <unicode hex="0055"/>
  <anchor x="368" y="0" name="ogonek"/>
  <anchor x="500" y="700" name="top"/>
  <outline>
    <contour>
      <point x="320" y="-14" type="curve"/>
      <point x="436" y="10"/>
      <point x="537" y="106"/>
      <point x="568" y="216" type="curve" smooth="yes"/>
      <point x="706" y="700" type="line" name="_corner00"/>
      <point x="680" y="700" type="line" name="_corner01"/>
      <point x="545" y="222" type="line" smooth="yes"/>
      <point x="521" y="137"/>
      <point x="447" y="65"/>
      <point x="356" y="32" type="curve"/>
      <point x="240" y="32"/>
      <point x="190" y="104"/>
      <point x="224" y="224" type="curve" smooth="yes"/>
      <point x="360" y="700" type="line" name="_corner02"/>
      <point x="210" y="700" type="line" name="_corner03"/>
      <point x="76" y="232" type="line" smooth="yes"/>
      <point x="33" y="82"/>
      <point x="131" y="-14"/>
    </contour>
  </outline>
</glyph>
<glyph name="V" format="2">
  <advance width="580"/>
  <unicode hex="0056"/>
  <outline>
    <contour>
      <point x="122" y="-58" type="line"/>
      <point x="382" y="90"/>
      <point x="614" y="392"/>
      <point x="650" y="620" type="curve"/>
      <point x="630" y="656"/>
      <point x="582" y="698"/>
      <point x="530" y="718" type="curve"/>
      <point x="474" y="656" type="line"/>
      <point x="478" y="616" type="line"/>
      <point x="602" y="544" type="line"/>
      <point x="554" y="368"/>
      <point x="414" y="176"/>
      <point x="222" y="32" type="curve"/>
      <point x="214" y="36" type="line"/>
      <point x="358" y="700" type="line"/>
      <point x="210" y="700" type="line" name="_corner00"/>
      <point x="74" y="64" type="line"/>
      <point x="94" y="28"/>
      <point x="126" y="0"/>
      <point x="154" y="-14" type="curve"/>
      <point x="112" y="-40" type="line"/>
    </contour>
  </outline>
</glyph>
<glyph name="W" format="2">
  <advance width="916"/>
  <unicode hex="0057"/>
  <outline>
    <contour>
      <point x="456" y="-60" type="line"/>
      <point x="716" y="88"/>
      <point x="948" y="388"/>
      <point x="984" y="616" type="curve"/>
      <point x="964" y="652"/>
      <point x="917" y="698"/>
      <point x="865" y="718" type="curve"/>
      <point x="817" y="656" type="line"/>
      <point x="821" y="616" type="line"/>
      <point x="932" y="540" type="line"/>
      <point x="884" y="364"/>
      <point x="744" y="172"/>
      <point x="552" y="28" type="curve"/>
      <point x="544" y="32" type="line"/>
      <point x="624" y="248"/>
      <point x="672" y="464"/>
      <point x="692" y="696" type="curve"/>
      <point x="633" y="718" type="line"/>
      <point x="550" y="686" type="line"/>
      <point x="510" y="414"/>
      <point x="408" y="212"/>
      <point x="224" y="40" type="curve"/>
      <point x="216" y="44" type="line"/>
      <point x="358" y="700" type="line"/>
      <point x="210" y="700" type="line" name="_corner00"/>
      <point x="72" y="60" type="line"/>
      <point x="94" y="24"/>
      <point x="126" y="-2"/>
      <point x="154" y="-14" type="curve"/>
      <point x="112" y="-40" type="line"/>
      <point x="122" y="-58" type="line"/>
      <point x="314" y="70"/>
      <point x="402" y="180"/>
      <point x="477" y="330" type="curve"/>
      <point x="485" y="328" type="line"/>
      <point x="459" y="223"/>
      <point x="446" y="178"/>
      <point x="408" y="72" type="curve"/>
      <point x="428" y="36"/>
      <point x="461" y="2"/>
      <point x="489" y="-14" type="curve"/>
      <point x="444" y="-44" type="line"/>
    </contour>
  </outline>
</glyph>
<glyph name="X" format="2">
  <advance width="716"/>
  <unicode hex="0058"/>
  <outline>
    <contour>
      <point x="428" y="0" type="line" name="_corner03"/>
      <point x="584" y="0" type="line" name="_corner00"/>
      <point x="354" y="700" type="line" name="_corner01"/>
      <point x="202" y="700" type="line" name="_corner02"/>
    </contour>
    <contour>
      <point x="18" y="0" type="line" name="_corner05"/>
      <point x="54" y="0" type="line" name="_corner04"/>
      <point x="360" y="320" type="line"/>
      <point x="352" y="344" type="line"/>
    </contour>
    <contour>
      <point x="440" y="376" type="line"/>
      <point x="752" y="700" type="line" name="_corner06"/>
      <point x="717" y="700" type="line" name="_corner07"/>
      <point x="432" y="400" type="line"/>
    </contour>
  </outline>
</glyph>
<glyph name="Y" format="2">
  <advance width="656"/>
  <unicode hex="0059"/>
  <anchor x="253" y="0" name="bottom"/>
  <anchor x="488" y="700" name="top"/>
  <outline>
    <contour>
      <point x="220" y="0" type="line" name="_corner05"/>
      <point x="370" y="0" type="line" name="_corner00"/>
      <point x="448" y="292" type="line"/>
      <point x="702" y="700" type="line" name="_corner01"/>
      <point x="672" y="700" type="line" name="_corner02"/>
      <point x="440" y="328" type="line"/>
      <point x="432" y="328" type="line"/>
      <point x="334" y="700" type="line" name="_corner03"/>
      <point x="186" y="700" type="line" name="_corner04"/>
      <point x="296" y="284" type="line"/>
    </contour>
  </outline>
</glyph>
<glyph name="Z" format="2">
  <advance width="568"/>
  <unicode hex="005A"/>
  <anchor x="384" y="700" name="top"/>
  <outline>
    <contour>
      <point x="8" y="0" type="line"/>
      <point x="481" y="0" type="line"/>
      <point x="530" y="232" type="line"/>
      <point x="514" y="236" type="line"/>
      <point x="368" y="24" type="line"/>
      <point x="140" y="24" type="line"/>
      <point x="140" y="0" type="line"/>
      <point x="626" y="668" type="line"/>
      <point x="612" y="700" type="line"/>
      <point x="147" y="700" type="line"/>
      <point x="108" y="472" type="line"/>
      <point x="124" y="468" type="line"/>
      <point x="264" y="676" type="line"/>
      <point x="468" y="676" type="line"/>
      <point x="468" y="692" type="line"/>
      <point x="-12" y="36" type="line"/>
    </contour>
  </outline>
</glyph>
<glyph name="bracketleft" format="2">
  <advance width="302"/>
  <unicode hex="005B"/>
  <outline>
    <contour>
      <point x="-114" y="-250" type="line"/>
      <point x="32" y="-250" type="line" name="_corner00"/>
      <point x="320" y="750" type="line" name="_corner01"/>
      <point x="174" y="750" type="line"/>
    </contour>
  </outline>
</glyph>
<glyph name="backslash" format="2">
  <advance width="504"/>
  <unicode hex="005C"/>
  <outline>
    <contour>
      <point x="444" y="-250" type="line"/>
      <point x="479" y="-250" type="line"/>
      <point x="172" y="750" type="line"/>
      <point x="138" y="750" type="line"/>
    </contour>
  </outline>
</glyph>
<glyph name="bracketright" format="2">
  <advance width="312"/>
  <unicode hex="005D"/>
  <outline>
    <contour>
      <point x="-13" y="-250" type="line" name="_corner01"/>
      <point x="133" y="-250" type="line"/>
      <point x="419" y="750" type="line"/>
      <point x="273" y="750" type="line" name="_corner00"/>
    </contour>
  </outline>
</glyph>
<glyph name="asciicircum" format="2">
  <advance width="519"/>
  <unicode hex="005E"/>
  <outline>
    <contour>
      <point x="171" y="466" type="line"/>
      <point x="397" y="719" type="line"/>
      <point x="486" y="466" type="line"/>
      <point x="554" y="490" type="line"/>
      <point x="446" y="773" type="line"/>
      <point x="365" y="773" type="line"/>
      <point x="120" y="506" type="line"/>
    </contour>
  </outline>
</glyph>
<glyph name="underscore" format="2">
  <advance width="376"/>
  <unicode hex="005F"/>
  <outline>
    <contour>
      <point x="-46" y="-64" type="line"/>
      <point x="262" y="-64" type="line"/>
      <point x="270" y="-24" type="line"/>
      <point x="-38" y="-24" type="line"/>
    </contour>
  </outline>
</glyph>
<glyph name="a" format="2">
  <advance width="548"/>
  <unicode hex="0061"/>
  <anchor x="386" y="0" name="ogonek"/>
  <anchor x="348" y="490" name="top"/>
  <outline>
    <contour>
      <point x="360" y="-18" type="line"/>
      <point x="392" y="4" type="line" name="_corner00"/>
      <point x="516" y="448" type="line"/>
      <point x="468" y="476"/>
      <point x="402" y="496"/>
      <point x="342" y="504" type="curve"/>
      <point x="174" y="452"/>
      <point x="12" y="304"/>
      <point x="12" y="140" type="curve" smooth="yes"/>
      <point x="12" y="54"/>
      <point x="59" y="-6"/>
      <point x="133" y="-14" type="curve"/>
      <point x="220" y="49"/>
      <point x="280" y="208"/>
      <point x="360" y="416" type="curve"/>
      <point x="368" y="414" type="line"/>
      <point x="257" y="24" type="line"/>
    </contour>
    <contour>
      <point x="192" y="96" type="curve"/>
      <point x="169" y="108"/>
      <point x="155" y="143"/>
      <point x="155" y="184" type="curve" smooth="yes"/>
      <point x="155" y="317"/>
      <point x="212" y="424"/>
      <point x="292" y="464" type="curve"/>
      <point x="314" y="460"/>
      <point x="332" y="450"/>
      <point x="348" y="436" type="curve"/>
      <point x="308" y="328"/>
      <point x="256" y="180"/>
    </contour>
  </outline>
</glyph>
<glyph name="b" format="2">
  <advance width="552"/>
  <unicode hex="0062"/>
  <outline>
    <contour>
      <point x="186" y="-14" type="curve"/>
      <point x="366" y="30"/>
      <point x="531" y="180"/>
      <point x="531" y="344" type="curve" smooth="yes"/>
      <point x="531" y="432"/>
      <point x="480" y="496"/>
      <point x="404" y="504" type="curve"/>
      <point x="312" y="436"/>
      <point x="248" y="270"/>
      <point x="168" y="78" type="curve"/>
      <point x="160" y="80" type="line"/>
      <point x="348" y="740" type="line"/>
      <point x="288" y="768" type="line"/>
      <point x="206" y="736" type="line" name="_corner00"/>
      <point x="20" y="76" type="line"/>
      <point x="-24" y="64" type="line"/>
      <point x="-28" y="36" type="line"/>
      <point x="24" y="6"/>
      <point x="107" y="-14"/>
    </contour>
    <contour>
      <point x="248" y="32" type="curve"/>
      <point x="224" y="35"/>
      <point x="202" y="40"/>
      <point x="180" y="52" type="curve"/>
      <point x="220" y="160"/>
      <point x="292" y="316"/>
      <point x="356" y="404" type="curve"/>
      <point x="376" y="388"/>
      <point x="388" y="356"/>
      <point x="388" y="316" type="curve" smooth="yes"/>
      <point x="388" y="188"/>
      <point x="328" y="80"/>
    </contour>
  </outline>
</glyph>
<glyph name="c" format="2">
  <advance width="412"/>
  <unicode hex="0063"/>
  <anchor x="156" y="0" name="bottom"/>
  <anchor x="308" y="490" name="top"/>
  <outline>
    <contour>
      <point x="200" y="-14" type="curve"/>
      <point x="356" y="76" type="line"/>
      <point x="346" y="92" type="line"/>
      <point x="314" y="72"/>
      <point x="284" y="56"/>
      <point x="248" y="44" type="curve"/>
      <point x="192" y="52"/>
      <point x="156" y="107"/>
      <point x="156" y="184" type="curve" smooth="yes"/>
      <point x="156" y="312"/>
      <point x="212" y="432"/>
      <point x="288" y="476" type="curve"/>
      <point x="320" y="456"/>
      <point x="332" y="392"/>
      <point x="344" y="336" type="curve"/>
      <point x="380" y="336" type="line"/>
      <point x="428" y="444" type="line"/>
      <point x="404" y="476"/>
      <point x="354" y="500"/>
      <point x="308" y="504" type="curve"/>
      <point x="120" y="468"/>
      <point x="10" y="320"/>
      <point x="10" y="160" type="curve" smooth="yes"/>
      <point x="10" y="54"/>
      <point x="84" y="-14"/>
    </contour>
  </outline>
</glyph>
<glyph name="e" format="2">
  <advance width="428"/>
  <unicode hex="0065"/>
  <anchor x="224" y="0" name="ogonek"/>
  <anchor x="284" y="490" name="top"/>
  <outline>
    <contour>
      <point x="200" y="-14" type="curve"/>
      <point x="358" y="76" type="line"/>
      <point x="348" y="92" type="line"/>
      <point x="316" y="72"/>
      <point x="284" y="56"/>
      <point x="248" y="44" type="curve"/>
      <point x="192" y="56"/>
      <point x="154" y="116"/>
      <point x="154" y="196" type="curve" smooth="yes"/>
      <point x="154" y="308"/>
      <point x="204" y="416"/>
      <point x="276" y="468" type="curve"/>
      <point x="288" y="456"/>
      <point x="296" y="432"/>
      <point x="296" y="404" type="curve" smooth="yes"/>
      <point x="296" y="336"/>
      <point x="248" y="252"/>
      <point x="128" y="192" type="curve"/>
      <point x="132" y="180" type="line"/>
      <point x="316" y="228"/>
      <point x="436" y="296"/>
      <point x="436" y="396" type="curve" smooth="yes"/>
      <point x="436" y="460"/>
      <point x="388" y="504"/>
      <point x="312" y="504" type="curve"/>
      <point x="124" y="464"/>
      <point x="8" y="308"/>
      <point x="8" y="160" type="curve" smooth="yes"/>
      <point x="8" y="56"/>
      <point x="84" y="-14"/>
    </contour>
  </outline>
</glyph>
<glyph name="f" format="2">
  <advance width="394"/>
  <unicode hex="0066"/>
  <outline>
    <contour>
      <point x="-183" y="-264" type="curve"/>
      <point x="-66" y="-241"/>
      <point x="68" y="-153"/>
      <point x="140" y="-52" type="curve"/>
      <point x="336" y="644" type="line" smooth="yes"/>
      <point x="343" y="668"/>
      <point x="358" y="687"/>
      <point x="376" y="700" type="curve"/>
      <point x="524" y="612" type="line"/>
      <point x="564" y="616" type="line"/>
      <point x="606" y="704" type="line"/>
      <point x="561" y="741"/>
      <point x="508" y="764"/>
      <point x="472" y="764" type="curve"/>
      <point x="366" y="743"/>
      <point x="240" y="652"/>
      <point x="168" y="544" type="curve"/>
      <point x="-24" y="-132" type="line" smooth="yes"/>
      <point x="-32" y="-160"/>
      <point x="-48" y="-182"/>
      <point x="-68" y="-196" type="curve"/>
      <point x="-224" y="-112" type="line"/>
      <point x="-264" y="-120" type="line"/>
      <point x="-316" y="-200" type="line"/>
      <point x="-272" y="-236"/>
      <point x="-219" y="-260"/>
    </contour>
    <contour>
      <point x="88" y="468" type="line"/>
      <point x="402" y="468" type="line"/>
      <point x="406" y="490" type="line"/>
      <point x="92" y="490" type="line"/>
    </contour>
  </outline>
</glyph>
<glyph name="g" format="2">
  <advance width="504"/>
  <unicode hex="0067"/>
  <anchor x="101" y="-250" name="bottom"/>
  <anchor x="336" y="490" name="top"/>
  <outline>
    <contour>
      <point x="51" y="-264" type="curve"/>
      <point x="163" y="-240"/>
      <point x="297" y="-174"/>
      <point x="368" y="-80" type="curve"/>
      <point x="524" y="476" type="line"/>
      <point x="488" y="494"/>
      <point x="444" y="504"/>
      <point x="396" y="508" type="curve"/>
      <point x="388" y="484" type="line"/>
      <point x="408" y="488" type="line"/>
      <point x="389" y="498"/>
      <point x="361" y="504"/>
      <point x="342" y="504" type="curve"/>
      <point x="174" y="452"/>
      <point x="12" y="304"/>
      <point x="12" y="140" type="curve" smooth="yes"/>
      <point x="12" y="54"/>
      <point x="59" y="-6"/>
      <point x="133" y="-14" type="curve"/>
      <point x="220" y="49"/>
      <point x="280" y="208"/>
      <point x="360" y="416" type="curve"/>
      <point x="368" y="414" type="line"/>
      <point x="212" y="-136" type="line" smooth="yes"/>
      <point x="204" y="-164"/>
      <point x="188" y="-184"/>
      <point x="168" y="-196" type="curve"/>
      <point x="12" y="-112" type="line"/>
      <point x="-28" y="-116" type="line"/>
      <point x="-88" y="-204" type="line"/>
      <point x="-44" y="-240"/>
      <point x="15" y="-264"/>
    </contour>
    <contour>
      <point x="192" y="96" type="curve"/>
      <point x="169" y="108"/>
      <point x="155" y="143"/>
      <point x="155" y="184" type="curve" smooth="yes"/>
      <point x="155" y="317"/>
      <point x="212" y="424"/>
      <point x="292" y="464" type="curve"/>
      <point x="314" y="460"/>
      <point x="332" y="450"/>
      <point x="348" y="436" type="curve"/>
      <point x="308" y="328"/>
      <point x="256" y="180"/>
    </contour>
  </outline>
</glyph>
<glyph name="h" format="2">
  <advance width="576"/>
  <unicode hex="0068"/>
  <outline>
    <contour>
      <point x="392" y="-18" type="line"/>
      <point x="424" y="4" type="line" name="_corner00"/>
      <point x="515" y="332" type="line" smooth="yes"/>
      <point x="543" y="432"/>
      <point x="503" y="504"/>
      <point x="411" y="504" type="curve"/>
      <point x="307" y="456"/>
      <point x="227" y="242"/>
      <point x="151" y="54" type="curve"/>
      <point x="143" y="56" type="line"/>
      <point x="344" y="740" type="line"/>
      <point x="288" y="768" type="line"/>
      <point x="203" y="736" type="line" name="_corner01"/>
      <point x="-5" y="4" type="line"/>
      <point x="145" y="-4" type="line"/>
      <point x="213" y="168"/>
      <point x="279" y="324"/>
      <point x="347" y="396" type="curve"/>
      <point x="375" y="388"/>
      <point x="381" y="360"/>
      <point x="369" y="316" type="curve" smooth="yes"/>
      <point x="288" y="24" type="line"/>
    </contour>
  </outline>
</glyph>
<glyph name="k" format="2">
  <advance width="544"/>
  <unicode hex="006B"/>
  <anchor x="232" y="0" name="bottom"/>
  <outline>
    <contour>
      <point x="396" y="-58" type="line"/>
      <point x="444" y="-46" type="line" name="_corner01"/>
      <point x="400" y="196" type="line"/>
      <point x="295" y="206" type="line"/>
      <point x="295" y="214" type="line"/>
      <point x="447" y="250"/>
      <point x="532" y="316"/>
      <point x="532" y="400" type="curve" smooth="yes"/>
      <point x="532" y="460"/>
      <point x="488" y="500"/>
      <point x="420" y="504" type="curve"/>
      <point x="316" y="456"/>
      <point x="227" y="242"/>
      <point x="151" y="54" type="curve"/>
      <point x="143" y="56" type="line"/>
      <point x="344" y="740" type="line"/>
      <point x="288" y="768" type="line"/>
      <point x="203" y="736" type="line" name="_corner00"/>
      <point x="-5" y="4" type="line"/>
      <point x="145" y="-4" type="line"/>
      <point x="213" y="168"/>
      <point x="288" y="324"/>
      <point x="356" y="396" type="curve"/>
      <point x="373" y="391"/>
      <point x="384" y="372"/>
      <point x="384" y="348" type="curve" smooth="yes"/>
      <point x="384" y="300"/>
      <point x="340" y="248"/>
      <point x="264" y="208" type="curve"/>
      <point x="296" y="-24" type="line"/>
    </contour>
  </outline>
</glyph>
<glyph name="l" format="2">
  <advance width="292"/>
  <unicode hex="006C"/>
  <anchor x="76" y="0" name="bottom"/>
  <anchor x="280" y="750" name="top"/>
  <anchor x="273" y="490" name="topright"/>
  <outline>
    <contour>
      <point x="104" y="-18" type="line"/>
      <point x="136" y="4" type="line" name="_corner00"/>
      <point x="344" y="744" type="line"/>
      <point x="284" y="768" type="line"/>
      <point x="202" y="736" type="line" name="_corner01"/>
      <point x="0" y="24" type="line"/>
    </contour>
  </outline>
</glyph>
<glyph name="m" format="2">
  <advance width="844"/>
  <unicode hex="006D"/>
  <outline>
    <contour>
      <point x="660" y="-18" type="line"/>
      <point x="692" y="4" type="line" name="_corner00"/>
      <point x="784" y="336" type="line" smooth="yes"/>
      <point x="812" y="438"/>
      <point x="772" y="504"/>
      <point x="684" y="504" type="curve"/>
      <point x="580" y="456"/>
      <point x="512" y="242"/>
      <point x="436" y="54" type="curve"/>
      <point x="428" y="56" type="line"/>
      <point x="510" y="328" type="line" smooth="yes"/>
      <point x="542" y="435"/>
      <point x="505" y="504"/>
      <point x="416" y="504" type="curve"/>
      <point x="312" y="456"/>
      <point x="244" y="242"/>
      <point x="168" y="54" type="curve"/>
      <point x="160" y="56" type="line"/>
      <point x="286" y="480" type="line"/>
      <point x="229" y="508" type="line"/>
      <point x="145" y="476" type="line" name="_corner01"/>
      <point x="12" y="4" type="line"/>
      <point x="162" y="-4" type="line"/>
      <point x="230" y="168"/>
      <point x="280" y="324"/>
      <point x="348" y="396" type="curve"/>
      <point x="372" y="388"/>
      <point x="380" y="358"/>
      <point x="368" y="316" type="curve" smooth="yes"/>
      <point x="280" y="4" type="line"/>
      <point x="430" y="-4" type="line"/>
      <point x="498" y="168"/>
      <point x="548" y="324"/>
      <point x="616" y="396" type="curve"/>
      <point x="640" y="388"/>
      <point x="648" y="352"/>
      <point x="636" y="308" type="curve" smooth="yes"/>
      <point x="556" y="20" type="line"/>
    </contour>
  </outline>
</glyph>
<glyph name="n" format="2">
  <advance width="593"/>
  <unicode hex="006E"/>
  <anchor x="248" y="0" name="bottom"/>
  <anchor x="376" y="490" name="top"/>
  <outline>
    <contour>
      <point x="409" y="-18" type="line"/>
      <point x="441" y="4" type="line" name="_corner01"/>
      <point x="532" y="332" type="line" smooth="yes"/>
      <point x="560" y="432"/>
      <point x="520" y="504"/>
      <point x="428" y="504" type="curve"/>
      <point x="324" y="456"/>
      <point x="244" y="242"/>
      <point x="168" y="54" type="curve"/>
      <point x="160" y="56" type="line"/>
      <point x="288" y="480" type="line"/>
      <point x="229" y="508" type="line"/>
      <point x="145" y="476" type="line" name="_corner00"/>
      <point x="12" y="4" type="line"/>
      <point x="162" y="-4" type="line"/>
      <point x="230" y="168"/>
      <point x="296" y="324"/>
      <point x="364" y="396" type="curve"/>
      <point x="392" y="388"/>
      <point x="398" y="360"/>
      <point x="386" y="316" type="curve" smooth="yes"/>
      <point x="305" y="24" type="line"/>
    </contour>
  </outline>
</glyph>
<glyph name="o" format="2">
  <advance width="494"/>
  <unicode hex="006F"/>
  <anchor x="224" y="0" name="ogonek"/>
  <anchor x="300" y="490" name="top"/>
  <outline>
    <contour>
      <point x="172" y="-14" type="curve"/>
      <point x="346" y="20"/>
      <point x="476" y="164"/>
      <point x="476" y="320" type="curve" smooth="yes"/>
      <point x="476" y="424"/>
      <point x="412" y="500"/>
      <point x="312" y="504" type="curve"/>
      <point x="135" y="469"/>
      <point x="10" y="324"/>
      <point x="10" y="168" type="curve" smooth="yes"/>
      <point x="10" y="60"/>
      <point x="72" y="-10"/>
    </contour>
    <contour>
      <point x="195" y="14" type="curve"/>
      <point x="170" y="22"/>
      <point x="157" y="70"/>
      <point x="157" y="132" type="curve" smooth="yes"/>
      <point x="157" y="270"/>
      <point x="213" y="431"/>
      <point x="290" y="476" type="curve"/>
      <point x="316" y="469"/>
      <point x="328" y="424"/>
      <point x="328" y="362" type="curve" smooth="yes"/>
      <point x="328" y="221"/>
      <point x="274" y="59"/>
    </contour>
  </outline>
</glyph>
<glyph name="p" format="2">
  <advance width="560"/>
  <unicode hex="0070"/>
  <outline>
    <contour>
      <point x="80" y="-256" type="line"/>
      <point x="150" y="4" type="line"/>
      <point x="132" y="-6" type="line"/>
      <point x="153" y="-11"/>
      <point x="177" y="-14"/>
      <point x="196" y="-14" type="curve"/>
      <point x="376" y="30"/>
      <point x="539" y="180"/>
      <point x="539" y="344" type="curve" smooth="yes"/>
      <point x="539" y="432"/>
      <point x="488" y="496"/>
      <point x="412" y="504" type="curve"/>
      <point x="320" y="436"/>
      <point x="256" y="270"/>
      <point x="176" y="78" type="curve"/>
      <point x="168" y="80" type="line"/>
      <point x="288" y="480" type="line"/>
      <point x="228" y="508" type="line"/>
      <point x="145" y="476" type="line" name="_corner00"/>
      <point x="-58" y="-248" type="line"/>
    </contour>
    <contour>
      <point x="256" y="32" type="curve"/>
      <point x="232" y="35"/>
      <point x="210" y="40"/>
      <point x="188" y="52" type="curve"/>
      <point x="228" y="160"/>
      <point x="300" y="316"/>
      <point x="364" y="404" type="curve"/>
      <point x="384" y="388"/>
      <point x="396" y="356"/>
      <point x="396" y="316" type="curve" smooth="yes"/>
      <point x="396" y="188"/>
      <point x="336" y="80"/>
    </contour>
  </outline>
</glyph>
<glyph name="q" format="2">
  <advance width="512"/>
  <unicode hex="0071"/>
  <outline>
    <contour>
      <point x="289" y="-268" type="line"/>
      <point x="321" y="-252" type="line" name="_corner00"/>
      <point x="524" y="476" type="line"/>
      <point x="488" y="494"/>
      <point x="444" y="504"/>
      <point x="396" y="508" type="curve"/>
      <point x="388" y="484" type="line"/>
      <point x="408" y="488" type="line"/>
      <point x="389" y="498"/>
      <point x="361" y="504"/>
      <point x="342" y="504" type="curve"/>
      <point x="174" y="452"/>
      <point x="12" y="304"/>
      <point x="12" y="140" type="curve" smooth="yes"/>
      <point x="12" y="54"/>
      <point x="59" y="-6"/>
      <point x="133" y="-14" type="curve"/>
      <point x="220" y="49"/>
      <point x="280" y="208"/>
      <point x="360" y="416" type="curve"/>
      <point x="368" y="414" type="line"/>
      <point x="191" y="-212" type="line"/>
    </contour>
    <contour>
      <point x="192" y="96" type="curve"/>
      <point x="169" y="108"/>
      <point x="155" y="143"/>
      <point x="155" y="184" type="curve" smooth="yes"/>
      <point x="155" y="317"/>
      <point x="212" y="424"/>
      <point x="292" y="464" type="curve"/>
      <point x="314" y="460"/>
      <point x="332" y="450"/>
      <point x="348" y="436" type="curve"/>
      <point x="308" y="328"/>
      <point x="256" y="180"/>
    </contour>
  </outline>
</glyph>
<glyph name="r" format="2">
  <advance width="488"/>
  <unicode hex="0072"/>
  <anchor x="104" y="0" name="bottom"/>
  <anchor x="336" y="490" name="top"/>
  <outline>
    <contour>
      <point x="164" y="-4" type="line"/>
      <point x="228" y="160"/>
      <point x="252" y="216"/>
      <point x="300" y="300" type="curve"/>
      <point x="372" y="356"/>
      <point x="434" y="384"/>
      <point x="514" y="400" type="curve"/>
      <point x="534" y="448" type="line"/>
      <point x="416" y="508" type="line"/>
      <point x="312" y="450"/>
      <point x="244" y="242"/>
      <point x="168" y="54" type="curve"/>
      <point x="160" y="56" type="line"/>
      <point x="288" y="480" type="line"/>
      <point x="229" y="508" type="line"/>
      <point x="145" y="476" type="line" name="_corner00"/>
      <point x="12" y="4" type="line"/>
    </contour>
  </outline>
</glyph>
<glyph name="s" format="2">
  <advance width="364"/>
  <unicode hex="0073"/>
  <anchor x="112" y="0" name="bottom"/>
  <anchor x="264" y="490" name="top"/>
  <outline>
    <contour>
      <point x="88" y="-14" type="curve"/>
      <point x="204" y="10"/>
      <point x="308" y="88"/>
      <point x="308" y="180" type="curve" smooth="yes"/>
      <point x="308" y="299"/>
      <point x="148" y="328"/>
      <point x="140" y="420" type="curve"/>
      <point x="150" y="432"/>
      <point x="159" y="440"/>
      <point x="172" y="448" type="curve"/>
      <point x="332" y="376" type="line"/>
      <point x="356" y="384" type="line"/>
      <point x="380" y="476" type="line"/>
      <point x="355" y="494"/>
      <point x="309" y="506"/>
      <point x="264" y="504" type="curve"/>
      <point x="144" y="476"/>
      <point x="76" y="400"/>
      <point x="76" y="316" type="curve" smooth="yes"/>
      <point x="76" y="196"/>
      <point x="228" y="172"/>
      <point x="236" y="80" type="curve"/>
      <point x="220" y="64"/>
      <point x="203" y="52"/>
      <point x="183" y="42" type="curve"/>
      <point x="36" y="132" type="line"/>
      <point x="4" y="124" type="line"/>
      <point x="-40" y="36" type="line"/>
      <point x="-8" y="12"/>
      <point x="50" y="-12"/>
    </contour>
  </outline>
</glyph>
<glyph name="t" format="2">
  <advance width="324"/>
  <unicode hex="0074"/>
  <anchor x="108" y="0" name="bottom"/>
  <anchor x="280" y="468" name="topright"/>
  <outline>
    <contour>
      <point x="112" y="-18" type="line"/>
      <point x="144" y="4" type="line" name="_corner00"/>
      <point x="320" y="644" type="line"/>
      <point x="284" y="660" type="line"/>
      <point x="160" y="572" type="line"/>
      <point x="8" y="24" type="line"/>
    </contour>
    <contour>
      <point x="72" y="468" type="line"/>
      <point x="376" y="468" type="line"/>
      <point x="381" y="490" type="line"/>
      <point x="77" y="490" type="line"/>
    </contour>
  </outline>
</glyph>
<glyph name="u" format="2">
  <advance width="584"/>
  <unicode hex="0075"/>
  <anchor x="420" y="0" name="ogonek"/>
  <anchor x="344" y="490" name="top"/>
  <outline>
    <contour>
      <point x="394" y="-18" type="line"/>
      <point x="426" y="4" type="line" name="_corner00"/>
      <point x="562" y="486" type="line"/>
      <point x="406" y="494" type="line"/>
      <point x="342" y="322"/>
      <point x="285" y="167"/>
      <point x="217" y="91" type="curve"/>
      <point x="189" y="99"/>
      <point x="179" y="136"/>
      <point x="192" y="184" type="curve" smooth="yes"/>
      <point x="274" y="488" type="line"/>
      <point x="214" y="508" type="line"/>
      <point x="131" y="476" type="line" name="_corner01"/>
      <point x="48" y="172" type="line" smooth="yes"/>
      <point x="17" y="60"/>
      <point x="64" y="-14"/>
      <point x="164" y="-14" type="curve"/>
      <point x="260" y="54"/>
      <point x="330" y="238"/>
      <point x="402" y="434" type="curve"/>
      <point x="410" y="432" type="line"/>
      <point x="290" y="24" type="line"/>
    </contour>
  </outline>
</glyph>
<glyph name="v" format="2">
  <advance width="484"/>
  <unicode hex="0076"/>
  <outline>
    <contour>
      <point x="128" y="-38" type="line"/>
      <point x="353" y="96"/>
      <point x="496" y="286"/>
      <point x="496" y="460" type="curve"/>
      <point x="473" y="501"/>
      <point x="433" y="537"/>
      <point x="395" y="552" type="curve"/>
      <point x="348" y="492" type="line"/>
      <point x="352" y="452" type="line"/>
      <point x="452" y="372" type="line"/>
      <point x="438" y="258"/>
      <point x="329" y="116"/>
      <point x="188" y="28" type="curve"/>
      <point x="180" y="32" type="line"/>
      <point x="286" y="480" type="line"/>
      <point x="228" y="508" type="line"/>
      <point x="145" y="476" type="line" name="_corner00"/>
      <point x="52" y="76" type="line"/>
      <point x="80" y="36"/>
      <point x="104" y="16"/>
      <point x="140" y="-4" type="curve"/>
      <point x="116" y="-20" type="line"/>
    </contour>
  </outline>
</glyph>
<glyph name="w" format="2">
  <advance width="738"/>
  <unicode hex="0077"/>
  <outline>
    <contour>
      <point x="128" y="-38" type="line"/>
      <point x="240" y="42"/>
      <point x="308" y="121"/>
      <point x="372" y="237" type="curve"/>
      <point x="380" y="234" type="line"/>
      <point x="324" y="100" type="line"/>
      <point x="343" y="65"/>
      <point x="378" y="26"/>
      <point x="413" y="0" type="curve"/>
      <point x="381" y="-20" type="line"/>
      <point x="393" y="-38" type="line"/>
      <point x="617" y="98"/>
      <point x="749" y="286"/>
      <point x="749" y="460" type="curve"/>
      <point x="726" y="501"/>
      <point x="686" y="537"/>
      <point x="648" y="552" type="curve"/>
      <point x="601" y="492" type="line"/>
      <point x="605" y="452" type="line"/>
      <point x="705" y="372" type="line"/>
      <point x="691" y="258"/>
      <point x="593" y="120"/>
      <point x="453" y="28" type="curve"/>
      <point x="445" y="32" type="line"/>
      <point x="497" y="180"/>
      <point x="529" y="332"/>
      <point x="541" y="480" type="curve"/>
      <point x="489" y="508" type="line"/>
      <point x="408" y="472" type="line"/>
      <point x="384" y="304"/>
      <point x="316" y="144"/>
      <point x="188" y="32" type="curve"/>
      <point x="180" y="36" type="line"/>
      <point x="286" y="484" type="line"/>
      <point x="228" y="508" type="line"/>
      <point x="145" y="476" type="line" name="_corner00"/>
      <point x="52" y="76" type="line"/>
      <point x="76" y="44"/>
      <point x="104" y="16"/>
      <point x="140" y="-4" type="curve"/>
      <point x="116" y="-20" type="line"/>
    </contour>
  </outline>
</glyph>
<glyph name="x" format="2">
  <advance width="488"/>
  <unicode hex="0078"/>
  <outline>
    <contour>
      <point x="315" y="-18" type="line"/>
      <point x="355" y="8" type="line" name="_corner00"/>
      <point x="261" y="484" type="line"/>
      <point x="185" y="508" type="line"/>
      <point x="117" y="482" type="line" name="_corner01"/>
      <point x="209" y="28" type="line"/>
    </contour>
    <contour>
      <point x="20" y="-124" type="line"/>
      <point x="58" y="-104" type="line"/>
      <point x="68" y="92" type="line"/>
      <point x="106" y="140"/>
      <point x="150" y="184"/>
      <point x="196" y="228" type="curve"/>
      <point x="188" y="240" type="line"/>
      <point x="65" y="132"/>
      <point x="-60" y="4"/>
      <point x="-72" y="-92" type="curve"/>
    </contour>
    <contour>
      <point x="284" y="272" type="line"/>
      <point x="404" y="372"/>
      <point x="504" y="460"/>
      <point x="512" y="548" type="curve"/>
      <point x="422" y="572" type="line"/>
      <point x="384" y="552" type="line"/>
      <point x="372" y="376" type="line"/>
      <point x="344" y="344"/>
      <point x="310" y="312"/>
      <point x="276" y="284" type="curve"/>
    </contour>
  </outline>
</glyph>
<glyph name="y" format="2">
  <advance width="444"/>
  <unicode hex="0079"/>
  <anchor x="272" y="490" name="top"/>
  <outline>
    <contour>
      <point x="-153" y="-264" type="curve"/>
      <point x="166" y="-138"/>
      <point x="448" y="224"/>
      <point x="460" y="460" type="curve"/>
      <point x="436" y="500"/>
      <point x="404" y="532"/>
      <point x="360" y="556" type="curve"/>
      <point x="312" y="500" type="line"/>
      <point x="316" y="460" type="line"/>
      <point x="412" y="372" type="line"/>
      <point x="388" y="244"/>
      <point x="304" y="115"/>
      <point x="200" y="15" type="curve"/>
      <point x="192" y="19" type="line"/>
      <point x="244" y="488" type="line"/>
      <point x="188" y="508" type="line"/>
      <point x="104" y="476" type="line" name="_corner00"/>
      <point x="64" y="68" type="line"/>
      <point x="100" y="24"/>
      <point x="124" y="0"/>
      <point x="164" y="-24" type="curve"/>
      <point x="96" y="-96"/>
      <point x="8" y="-160"/>
      <point x="-64" y="-196" type="curve"/>
      <point x="-192" y="-112" type="line"/>
      <point x="-232" y="-116" type="line"/>
      <point x="-290" y="-208" type="line"/>
      <point x="-246" y="-244"/>
      <point x="-189" y="-264"/>
    </contour>
  </outline>
</glyph>
<glyph name="z" format="2">
  <advance width="460"/>
  <unicode hex="007A"/>
  <anchor x="276" y="490" name="top"/>
  <outline>
    <contour>
      <point x="-46" y="-32" type="line"/>
      <point x="18" y="24" type="line"/>
      <point x="277" y="-18" type="line"/>
      <point x="302" y="0" type="line" name="_corner00"/>
      <point x="328" y="48" type="line"/>
      <point x="284" y="100"/>
      <point x="206" y="138"/>
      <point x="130" y="146" type="curve"/>
      <point x="166" y="184" type="line"/>
      <point x="334" y="224"/>
      <point x="446" y="340"/>
      <point x="478" y="480" type="curve"/>
      <point x="350" y="516" type="line"/>
      <point x="270" y="340"/>
      <point x="126" y="152"/>
      <point x="-62" y="-16" type="curve"/>
    </contour>
    <contour>
      <point x="110" y="300" type="line"/>
      <point x="206" y="464" type="line"/>
      <point x="342" y="436" type="line"/>
      <point x="346" y="456" type="line"/>
      <point x="94" y="508" type="line"/>
      <point x="66" y="448"/>
      <point x="50" y="384"/>
      <point x="42" y="316" type="curve"/>
    </contour>
  </outline>
</glyph>
<glyph name="braceleft" format="2">
  <advance width="272"/>
  <unicode hex="007B"/>
  <outline>
    <contour>
      <point x="78" y="-252" type="curve"/>
      <point x="84" y="-240" type="line"/>
      <point x="64" y="-220"/>
      <point x="61" y="-164"/>
      <point x="82" y="-92" type="curve" smooth="yes"/>
      <point x="148" y="138" type="line" smooth="yes"/>
      <point x="168" y="208"/>
      <point x="149" y="260"/>
      <point x="100" y="273" type="curve"/>
      <point x="160" y="285"/>
      <point x="202" y="329"/>
      <point x="228" y="417" type="curve" smooth="yes"/>
      <point x="284" y="604" type="line" smooth="yes"/>
      <point x="306" y="678"/>
      <point x="345" y="721"/>
      <point x="386" y="736" type="curve"/>
      <point x="382" y="752" type="line"/>
      <point x="252" y="740"/>
      <point x="145" y="646"/>
      <point x="106" y="512" type="curve" smooth="yes"/>
      <point x="62" y="360" type="line" smooth="yes"/>
      <point x="51" y="323"/>
      <point x="19" y="296"/>
      <point x="-22" y="291" type="curve"/>
      <point x="-24" y="271" type="line"/>
      <point x="12" y="271"/>
      <point x="29" y="246"/>
      <point x="18" y="208" type="curve" smooth="yes"/>
      <point x="-60" y="-68" type="line" smooth="yes"/>
      <point x="-88" y="-168"/>
      <point x="-34" y="-240"/>
    </contour>
  </outline>
</glyph>
<glyph name="bar" format="2">
  <advance width="235"/>
  <unicode hex="007C"/>
  <outline>
    <contour>
      <point x="-67" y="-251" type="line"/>
      <point x="-1" y="-250" type="line"/>
      <point x="304" y="750" type="line"/>
      <point x="239" y="750" type="line"/>
    </contour>
  </outline>
</glyph>
<glyph name="braceright" format="2">
  <advance width="280"/>
  <unicode hex="007D"/>
  <outline>
    <contour>
      <point x="-108" y="-252" type="line"/>
      <point x="32" y="-240"/>
      <point x="130" y="-142"/>
      <point x="168" y="-12" type="curve" smooth="yes"/>
      <point x="222" y="172" type="line" smooth="yes"/>
      <point x="233" y="208"/>
      <point x="265" y="233"/>
      <point x="303" y="236" type="curve"/>
      <point x="305" y="256" type="line"/>
      <point x="270" y="256"/>
      <point x="254" y="284"/>
      <point x="266" y="328" type="curve" smooth="yes"/>
      <point x="334" y="568" type="line" smooth="yes"/>
      <point x="362" y="668"/>
      <point x="308" y="740"/>
      <point x="194" y="752" type="curve"/>
      <point x="188" y="740" type="line"/>
      <point x="208" y="720"/>
      <point x="213" y="664"/>
      <point x="192" y="592" type="curve" smooth="yes"/>
      <point x="134" y="389" type="line" smooth="yes"/>
      <point x="114" y="319"/>
      <point x="132" y="267"/>
      <point x="181" y="254" type="curve"/>
      <point x="121" y="242"/>
      <point x="80" y="198"/>
      <point x="54" y="110" type="curve" smooth="yes"/>
      <point x="-10" y="-104" type="line" smooth="yes"/>
      <point x="-32" y="-178"/>
      <point x="-71" y="-225"/>
      <point x="-112" y="-240" type="curve"/>
    </contour>
  </outline>
</glyph>
<glyph name="asciitilde" format="2">
  <advance width="491"/>
  <unicode hex="007E"/>
  <outline>
    <contour>
      <point x="16" y="166" type="curve"/>
      <point x="77" y="166" type="line"/>
      <point x="95" y="225"/>
      <point x="120" y="246"/>
      <point x="153" y="246" type="curve" smooth="yes"/>
      <point x="206" y="246"/>
      <point x="247" y="166"/>
      <point x="322" y="166" type="curve" smooth="yes"/>
      <point x="393" y="166"/>
      <point x="446" y="218"/>
      <point x="470" y="306" type="curve"/>
      <point x="409" y="306" type="line"/>
      <point x="393" y="248"/>
      <point x="368" y="226"/>
      <point x="333" y="226" type="curve" smooth="yes"/>
      <point x="281" y="226"/>
      <point x="239" y="306"/>
      <point x="164" y="306" type="curve" smooth="yes"/>
      <point x="85" y="306"/>
      <point x="38" y="248"/>
    </contour>
  </outline>
</glyph>
<glyph name="exclamdown" format="2">
  <advance width="280"/>
  <unicode hex="00A1"/>
  <outline>
    <contour>
      <point x="-80" y="-250" type="curve"/>
      <point x="77" y="-250" type="line"/>
      <point x="135" y="-51"/>
      <point x="110" y="110"/>
      <point x="161" y="288" type="curve"/>
      <point x="135" y="288" type="line"/>
      <point x="85" y="112"/>
      <point x="-22" y="-47"/>
    </contour>
    <component base="period" xOffset="114" yOffset="374"/>
  </outline>
</glyph>
<glyph name="cent" format="2">
  <advance width="412"/>
  <unicode hex="00A2"/>
  <outline>
    <contour>
      <point x="99" y="-188" type="line"/>
      <point x="134" y="-188" type="line"/>
      <point x="395" y="706" type="line"/>
      <point x="360" y="706" type="line"/>
    </contour>
    <component base="c"/>
  </outline>
</glyph>
<glyph name="sterling" format="2">
  <advance width="622"/>
  <unicode hex="00A3"/>
  <outline>
    <contour>
      <point x="4" y="-24" type="line"/>
      <point x="45" y="18" type="line"/>
      <point x="185" y="80"/>
      <point x="312" y="20"/>
      <point x="380" y="-14" type="curve"/>
      <point x="565" y="156" type="line"/>
      <point x="558" y="166" type="line"/>
      <point x="471" y="118" type="line"/>
      <point x="370" y="131"/>
      <point x="276" y="154"/>
      <point x="116" y="62" type="curve"/>
      <point x="114" y="65" type="line"/>
      <point x="239" y="153"/>
      <point x="327" y="208"/>
      <point x="350" y="289" type="curve" smooth="yes"/>
      <point x="381" y="397"/>
      <point x="329" y="476"/>
      <point x="329" y="566" type="curve" smooth="yes"/>
      <point x="329" y="612"/>
      <point x="346" y="643"/>
      <point x="400" y="656" type="curve"/>
      <point x="533" y="577" type="line"/>
      <point x="569" y="581" type="line"/>
      <point x="607" y="660" type="line"/>
      <point x="568" y="693"/>
      <point x="519" y="714"/>
      <point x="486" y="714" type="curve"/>
      <point x="384" y="694"/>
      <point x="243" y="604"/>
      <point x="182" y="514" type="curve"/>
      <point x="148" y="397"/>
      <point x="223" y="326"/>
      <point x="190" y="224" type="curve" smooth="yes"/>
      <point x="167" y="151"/>
      <point x="90" y="87"/>
      <point x="-12" y="-10" type="curve"/>
    </contour>
    <contour>
      <point x="95" y="329" type="line"/>
      <point x="519" y="329" type="line"/>
      <point x="527" y="359" type="line"/>
      <point x="103" y="359" type="line"/>
    </contour>
  </outline>
</glyph>
<glyph name="currency" format="2">
  <advance width="453"/>
  <unicode hex="00A4"/>
  <outline>
    <contour>
      <point x="211" y="178" type="curve" smooth="yes"/>
      <point x="278" y="177"/>
      <point x="346" y="231"/>
      <point x="365" y="299" type="curve" smooth="yes"/>
      <point x="383" y="367"/>
      <point x="343" y="424"/>
      <point x="277" y="426" type="curve" smooth="yes"/>
      <point x="210" y="427"/>
      <point x="142" y="373"/>
      <point x="123" y="305" type="curve" smooth="yes"/>
      <point x="105" y="237"/>
      <point x="145" y="180"/>
    </contour>
    <contour>
      <point x="227" y="234" type="curve" smooth="yes"/>
      <point x="192" y="235"/>
      <point x="171" y="267"/>
      <point x="181" y="303" type="curve" smooth="yes"/>
      <point x="191" y="341"/>
      <point x="227" y="371"/>
      <point x="261" y="370" type="curve" smooth="yes"/>
      <point x="296" y="369"/>
      <point x="317" y="337"/>
      <point x="307" y="301" type="curve" smooth="yes"/>
      <point x="297" y="263"/>
      <point x="260" y="233"/>
    </contour>
    <contour>
      <point x="286" y="381" type="line"/>
      <point x="326" y="326" type="line"/>
      <point x="453" y="428" type="line"/>
      <point x="415" y="482" type="line"/>
    </contour>
    <contour>
      <point x="182" y="334" type="line"/>
      <point x="241" y="379" type="line"/>
      <point x="160" y="492" type="line"/>
      <point x="101" y="446" type="line"/>
    </contour>
    <contour>
      <point x="308" y="273" type="line"/>
      <point x="251" y="231" type="line"/>
      <point x="329" y="117" type="line"/>
      <point x="388" y="163" type="line"/>
    </contour>
    <contour>
      <point x="203" y="223" type="line"/>
      <point x="164" y="278" type="line"/>
      <point x="33" y="183" type="line"/>
      <point x="73" y="126" type="line"/>
    </contour>
  </outline>
</glyph>
<glyph name="yen" format="2">
  <advance width="656"/>
  <unicode hex="00A5"/>
  <outline>
    <contour>
      <point x="152" y="260" type="line"/>
      <point x="576" y="260" type="line"/>
      <point x="576" y="290" type="line"/>
      <point x="152" y="290" type="line"/>
    </contour>
    <contour>
      <point x="152" y="190" type="line"/>
      <point x="576" y="190" type="line"/>
      <point x="576" y="220" type="line"/>
      <point x="152" y="220" type="line"/>
    </contour>
    <component base="Y"/>
  </outline>
</glyph>
<glyph name="brokenbar" format="2">
  <advance width="233"/>
  <unicode hex="00A6"/>
  <outline>
    <contour>
      <point x="-67" y="-251" type="line"/>
      <point x="-3" y="-250" type="line"/>
      <point x="131" y="189" type="line"/>
      <point x="68" y="189" type="line"/>
    </contour>
    <contour>
      <point x="105" y="310" type="line"/>
      <point x="168" y="310" type="line"/>
      <point x="302" y="750" type="line"/>
      <point x="239" y="750" type="line"/>
    </contour>
  </outline>
</glyph>
<glyph name="section" format="2">
  <advance width="420"/>
  <unicode hex="00A7"/>
  <outline>
    <contour>
      <point x="235" y="261" type="curve"/>
      <point x="243" y="246" type="line"/>
      <point x="326" y="273"/>
      <point x="392" y="337"/>
      <point x="392" y="410" type="curve" smooth="yes"/>
      <point x="392" y="529"/>
      <point x="232" y="588"/>
      <point x="224" y="680" type="curve"/>
      <point x="234" y="692"/>
      <point x="243" y="700"/>
      <point x="256" y="708" type="curve"/>
      <point x="416" y="636" type="line"/>
      <point x="440" y="644" type="line"/>
      <point x="464" y="736" type="line"/>
      <point x="439" y="754"/>
      <point x="393" y="766"/>
      <point x="348" y="764" type="curve"/>
      <point x="228" y="736"/>
      <point x="160" y="660"/>
      <point x="160" y="576" type="curve" smooth="yes"/>
      <point x="160" y="456"/>
      <point x="312" y="398"/>
      <point x="320" y="306" type="curve"/>
      <point x="305" y="291"/>
      <point x="290" y="284"/>
    </contour>
    <contour>
      <point x="247" y="462" type="curve"/>
      <point x="238" y="479" type="line"/>
      <point x="115" y="436"/>
      <point x="90" y="366"/>
      <point x="90" y="306" type="curve" smooth="yes"/>
      <point x="90" y="186"/>
      <point x="242" y="132"/>
      <point x="250" y="40" type="curve"/>
      <point x="234" y="24"/>
      <point x="217" y="12"/>
      <point x="197" y="2" type="curve"/>
      <point x="50" y="92" type="line"/>
      <point x="18" y="84" type="line"/>
      <point x="-26" y="-4" type="line"/>
      <point x="6" y="-28"/>
      <point x="64" y="-52"/>
      <point x="102" y="-54" type="curve"/>
      <point x="218" y="-30"/>
      <point x="322" y="48"/>
      <point x="322" y="140" type="curve" smooth="yes"/>
      <point x="322" y="259"/>
      <point x="162" y="318"/>
      <point x="154" y="410" type="curve"/>
      <point x="168" y="427"/>
      <point x="193" y="447"/>
    </contour>
  </outline>
</glyph>
<glyph name="copyright" format="2">
  <advance width="746"/>
  <unicode hex="00A9"/>
  <outline>
    <contour>
      <point x="319" y="-14" type="curve" smooth="yes"/>
      <point x="516" y="-18"/>
      <point x="696" y="135"/>
      <point x="742" y="342" type="curve" smooth="yes"/>
      <point x="787" y="549"/>
      <point x="683" y="710"/>
      <point x="487" y="714" type="curve" smooth="yes"/>
      <point x="290" y="718"/>
      <point x="110" y="564"/>
      <point x="64" y="357" type="curve" smooth="yes"/>
      <point x="18" y="151"/>
      <point x="122" y="-9"/>
    </contour>
    <contour>
      <point x="334" y="45" type="curve" smooth="yes"/>
      <point x="167" y="49"/>
      <point x="100" y="181"/>
      <point x="138" y="356" type="curve" smooth="yes"/>
      <point x="177" y="532"/>
      <point x="305" y="659"/>
      <point x="472" y="655" type="curve" smooth="yes"/>
      <point x="639" y="652"/>
      <point x="706" y="519"/>
      <point x="667" y="343" type="curve" smooth="yes"/>
      <point x="628" y="169"/>
      <point x="501" y="42"/>
    </contour>
    <contour>
      <point x="382" y="133" type="curve"/>
      <point x="508" y="214" type="line"/>
      <point x="500" y="228" type="line"/>
      <point x="474" y="210"/>
      <point x="449" y="196"/>
      <point x="420" y="185" type="curve"/>
      <point x="375" y="192"/>
      <point x="346" y="231"/>
      <point x="346" y="301" type="curve" smooth="yes"/>
      <point x="346" y="416"/>
      <point x="392" y="504"/>
      <point x="453" y="544" type="curve"/>
      <point x="479" y="526"/>
      <point x="489" y="468"/>
      <point x="498" y="418" type="curve"/>
      <point x="528" y="418" type="line"/>
      <point x="566" y="515" type="line"/>
      <point x="546" y="544"/>
      <point x="506" y="565"/>
      <point x="469" y="569" type="curve"/>
      <point x="317" y="536"/>
      <point x="228" y="423"/>
      <point x="228" y="279" type="curve" smooth="yes"/>
      <point x="228" y="184"/>
      <point x="287" y="133"/>
    </contour>
  </outline>
</glyph>
<glyph name="logicalnot" format="2">
  <advance width="488"/>
  <unicode hex="00AC"/>
  <outline>
    <contour>
      <point x="323" y="60" type="line"/>
      <point x="391" y="60" type="line"/>
      <point x="446" y="265" type="line"/>
      <point x="46" y="265" type="line"/>
      <point x="31" y="207" type="line"/>
      <point x="362" y="207" type="line"/>
    </contour>
  </outline>
</glyph>
<glyph name="registered" format="2">
  <advance width="746"/>
  <unicode hex="00AE"/>
  <outline>
    <contour>
      <point x="319" y="-14" type="curve" smooth="yes"/>
      <point x="516" y="-18"/>
      <point x="696" y="135"/>
      <point x="742" y="342" type="curve" smooth="yes"/>
      <point x="787" y="549"/>
      <point x="683" y="710"/>
      <point x="487" y="714" type="curve" smooth="yes"/>
      <point x="290" y="718"/>
      <point x="110" y="564"/>
      <point x="64" y="357" type="curve" smooth="yes"/>
      <point x="18" y="151"/>
      <point x="122" y="-9"/>
    </contour>
    <contour>
      <point x="334" y="45" type="curve" smooth="yes"/>
      <point x="167" y="49"/>
      <point x="100" y="181"/>
      <point x="138" y="356" type="curve" smooth="yes"/>
      <point x="177" y="532"/>
      <point x="305" y="659"/>
      <point x="472" y="655" type="curve" smooth="yes"/>
      <point x="639" y="652"/>
      <point x="706" y="519"/>
      <point x="667" y="343" type="curve" smooth="yes"/>
      <point x="628" y="169"/>
      <point x="501" y="42"/>
    </contour>
    <contour>
      <point x="499" y="154" type="line"/>
      <point x="527" y="171" type="line" name="_corner00"/>
      <point x="471" y="330" type="line"/>
      <point x="392" y="342" type="line"/>
      <point x="392" y="346" type="line"/>
      <point x="434" y="346" type="line"/>
      <point x="530" y="364"/>
      <point x="596" y="410"/>
      <point x="596" y="476" type="curve" smooth="yes"/>
      <point x="596" y="526"/>
      <point x="554" y="562"/>
      <point x="494" y="562" type="curve" smooth="yes"/>
      <point x="332" y="562" type="line" name="_corner01"/>
      <point x="212" y="164" type="line" name="_corner02"/>
      <point x="307" y="164" type="line" name="_corner03"/>
      <point x="426" y="562" type="line"/>
      <point x="404" y="540" type="line"/>
      <point x="415" y="543"/>
      <point x="425" y="544"/>
      <point x="436" y="544" type="curve" smooth="yes"/>
      <point x="475" y="544"/>
      <point x="495" y="516"/>
      <point x="495" y="467" type="curve" smooth="yes"/>
      <point x="495" y="417"/>
      <point x="471" y="377"/>
      <point x="422" y="362" type="curve"/>
      <point x="396" y="362"/>
      <point x="373" y="366"/>
      <point x="349" y="375" type="curve"/>
      <point x="340" y="344" type="line"/>
      <point x="382" y="344" type="line"/>
      <point x="370" y="348" type="line"/>
      <point x="430" y="166" type="line"/>
    </contour>
  </outline>
</glyph>
<glyph name="degree" format="2">
  <advance width="297"/>
  <unicode hex="00B0"/>
  <outline>
    <contour>
      <point x="248" y="530" type="curve" smooth="yes"/>
      <point x="309" y="529"/>
      <point x="364" y="577"/>
      <point x="379" y="645" type="curve" smooth="yes"/>
      <point x="395" y="712"/>
      <point x="359" y="763"/>
      <point x="297" y="764" type="curve" smooth="yes"/>
      <point x="237" y="765"/>
      <point x="180" y="717"/>
      <point x="164" y="650" type="curve" smooth="yes"/>
      <point x="148" y="584"/>
      <point x="185" y="531"/>
    </contour>
    <contour>
      <point x="287" y="705" type="curve" smooth="yes"/>
      <point x="312" y="704"/>
      <point x="322" y="681"/>
      <point x="314" y="645" type="curve" smooth="yes"/>
      <point x="306" y="612"/>
      <point x="282" y="588"/>
      <point x="256" y="589" type="curve" smooth="yes"/>
      <point x="231" y="590"/>
      <point x="219" y="614"/>
      <point x="226" y="647" type="curve" smooth="yes"/>
      <point x="234" y="679"/>
      <point x="261" y="705"/>
    </contour>
  </outline>
</glyph>
<glyph name="plusminus" format="2">
  <advance width="465"/>
  <unicode hex="00B1"/>
  <outline>
    <contour>
      <point x="-2" y="21" type="line"/>
      <point x="356" y="21" type="line"/>
      <point x="372" y="73" type="line"/>
      <point x="14" y="73" type="line"/>
    </contour>
    <contour>
      <point x="47" y="265" type="line"/>
      <point x="423" y="265" type="line"/>
      <point x="440" y="323" type="line"/>
      <point x="64" y="323" type="line"/>
    </contour>
    <contour>
      <point x="162" y="133" type="line"/>
      <point x="234" y="133" type="line"/>
      <point x="326" y="455" type="line"/>
      <point x="254" y="455" type="line"/>
    </contour>
  </outline>
</glyph>
<glyph name="micro" format="2">
  <advance width="584"/>
  <unicode hex="00B5"/>
  <outline>
    <contour>
      <point x="93" y="76" type="curve"/>
      <point x="48" y="172" type="line"/>
      <point x="-58" y="-227" type="line"/>
      <point x="82" y="-149" type="line"/>
      <point x="72" y="-127"/>
      <point x="83" y="39"/>
    </contour>
    <component base="u"/>
  </outline>
</glyph>
<glyph name="paragraph" format="2">
  <advance width="564"/>
  <unicode hex="00B6"/>
  <outline>
    <contour>
      <point x="230" y="0" type="line" name="_corner02"/>
      <point x="383" y="0" type="line" name="_corner00"/>
      <point x="595" y="700" type="line" name="_corner01"/>
      <point x="399" y="700" type="line"/>
      <point x="210" y="701"/>
      <point x="115" y="582"/>
      <point x="115" y="452" type="curve" smooth="yes"/>
      <point x="115" y="351"/>
      <point x="189" y="314"/>
      <point x="278" y="314" type="curve"/>
      <point x="328" y="313" type="line"/>
    </contour>
    <contour>
      <point x="499" y="671" type="line"/>
      <point x="509" y="671" type="line"/>
      <point x="339" y="36" type="line"/>
      <point x="302" y="36" type="line"/>
    </contour>
  </outline>
</glyph>
<glyph name="questiondown" format="2">
  <advance width="428"/>
  <unicode hex="00BF"/>
  <outline>
    <contour>
      <point x="162" y="-264" type="curve"/>
      <point x="344" y="-148" type="line"/>
      <point x="334" y="-130" type="line"/>
      <point x="293" y="-155"/>
      <point x="251" y="-177"/>
      <point x="208" y="-198" type="curve"/>
      <point x="152" y="-190"/>
      <point x="114" y="-142"/>
      <point x="114" y="-70" type="curve" smooth="yes"/>
      <point x="114" y="17"/>
      <point x="171" y="86"/>
      <point x="267" y="114" type="curve"/>
      <point x="281" y="288" type="line"/>
      <point x="257" y="288" type="line"/>
      <point x="163" y="78" type="line"/>
      <point x="46" y="53"/>
      <point x="-40" y="-30"/>
      <point x="-40" y="-116" type="curve" smooth="yes"/>
      <point x="-40" y="-205"/>
      <point x="45" y="-264"/>
    </contour>
    <component base="period" xOffset="222" yOffset="374"/>
  </outline>
</glyph>
<glyph name="AE" format="2">
  <advance width="900"/>
  <unicode hex="00C6"/>
  <outline>
    <contour>
      <point x="-25" y="0" type="line" name="_corner02"/>
      <point x="20" y="0" type="line" name="_corner00"/>
      <point x="516" y="614" type="line"/>
      <point x="524" y="608" type="line"/>
      <point x="764" y="710" type="line"/>
      <point x="724" y="706"/>
      <point x="672" y="700"/>
      <point x="635" y="700" type="curve"/>
      <point x="552" y="700" type="line" name="_corner01"/>
    </contour>
    <contour>
      <point x="173" y="238" type="curve"/>
      <point x="459" y="238" type="line"/>
      <point x="463" y="264" type="line"/>
      <point x="196" y="264" type="line"/>
      <point x="112" y="388" type="line"/>
      <point x="68" y="384" type="line"/>
      <point x="8" y="292" type="line"/>
      <point x="64" y="258"/>
      <point x="121" y="238"/>
    </contour>
    <component base="E" xOffset="368"/>
  </outline>
</glyph>
<glyph name="Eth" format="2">
  <advance width="682"/>
  <unicode hex="00D0"/>
  <outline>
    <contour>
      <point x="54" y="360" type="line"/>
      <point x="420" y="360" type="line"/>
      <point x="422" y="380" type="line"/>
      <point x="56" y="380" type="line"/>
    </contour>
    <component base="D"/>
  </outline>
</glyph>
<glyph name="multiply" format="2">
  <advance width="415"/>
  <unicode hex="00D7"/>
  <outline>
    <contour>
      <point x="52" y="77" type="line"/>
      <point x="195" y="193" type="line"/>
      <point x="281" y="65" type="line"/>
      <point x="333" y="106" type="line"/>
      <point x="246" y="231" type="line"/>
      <point x="392" y="346" type="line"/>
      <point x="358" y="393" type="line"/>
      <point x="215" y="280" type="line"/>
      <point x="129" y="406" type="line"/>
      <point x="77" y="366" type="line"/>
      <point x="164" y="242" type="line"/>
      <point x="17" y="126" type="line"/>
    </contour>
  </outline>
</glyph>
<glyph name="Oslash" format="2">
  <advance width="648"/>
  <unicode hex="00D8"/>
  <outline>
    <contour>
      <point x="-8" y="-4" type="line"/>
      <point x="748" y="700" type="line"/>
      <point x="732" y="718" type="line"/>
      <point x="-24" y="14" type="line"/>
    </contour>
    <component base="O"/>
  </outline>
</glyph>
<glyph name="Thorn" format="2">
  <advance width="648"/>
  <unicode hex="00DE"/>
  <outline>
    <contour>
      <point x="40" y="0" type="line" name="_corner03"/>
      <point x="190" y="0" type="line" name="_corner00"/>
      <point x="390" y="700" type="line" name="_corner01"/>
      <point x="240" y="700" type="line" name="_corner02"/>
    </contour>
    <contour>
      <point x="216" y="161" type="line"/>
      <point x="382" y="161" type="line"/>
      <point x="542" y="189"/>
      <point x="658" y="284"/>
      <point x="658" y="404" type="curve" smooth="yes"/>
      <point x="658" y="499"/>
      <point x="585" y="567"/>
      <point x="482" y="567" type="curve" smooth="yes"/>
      <point x="332" y="567" type="line"/>
      <point x="322" y="534" type="line"/>
      <point x="340" y="539"/>
      <point x="364" y="542"/>
      <point x="382" y="542" type="curve" smooth="yes"/>
      <point x="453" y="542"/>
      <point x="498" y="484"/>
      <point x="498" y="395" type="curve" smooth="yes"/>
      <point x="498" y="298"/>
      <point x="443" y="216"/>
      <point x="358" y="186" type="curve"/>
      <point x="313" y="186"/>
      <point x="262" y="195"/>
      <point x="229" y="208" type="curve"/>
    </contour>
  </outline>
</glyph>
<glyph name="germandbls" format="2">
  <advance width="608"/>
  <unicode hex="00DF"/>
  <outline>
    <contour>
      <point x="-183" y="-264" type="curve"/>
      <point x="-66" y="-241"/>
      <point x="68" y="-153"/>
      <point x="140" y="-52" type="curve"/>
      <point x="320" y="586" type="line" smooth="yes"/>
      <point x="340" y="657"/>
      <point x="390" y="712"/>
      <point x="432" y="736" type="curve"/>
      <point x="456" y="724"/>
      <point x="468" y="680"/>
      <point x="468" y="640" type="curve" smooth="yes"/>
      <point x="468" y="510"/>
      <point x="322" y="467"/>
      <point x="322" y="348" type="curve" smooth="yes"/>
      <point x="322" y="228"/>
      <point x="478" y="180"/>
      <point x="482" y="84" type="curve"/>
      <point x="466" y="64"/>
      <point x="448" y="52"/>
      <point x="424" y="44" type="curve"/>
      <point x="282" y="132" type="line"/>
      <point x="250" y="124" type="line"/>
      <point x="206" y="36" type="line"/>
      <point x="238" y="12"/>
      <point x="296" y="-12"/>
      <point x="334" y="-14" type="curve"/>
      <point x="450" y="10"/>
      <point x="552" y="84"/>
      <point x="552" y="180" type="curve" smooth="yes"/>
      <point x="552" y="300"/>
      <point x="388" y="348"/>
      <point x="384" y="448" type="curve"/>
      <point x="440" y="508"/>
      <point x="608" y="536"/>
      <point x="608" y="644" type="curve" smooth="yes"/>
      <point x="608" y="710"/>
      <point x="542" y="760"/>
      <point x="448" y="764" type="curve"/>
      <point x="342" y="743"/>
      <point x="240" y="652"/>
      <point x="168" y="544" type="curve"/>
      <point x="-24" y="-132" type="line" smooth="yes"/>
      <point x="-32" y="-160"/>
      <point x="-48" y="-182"/>
      <point x="-68" y="-196" type="curve"/>
      <point x="-224" y="-112" type="line"/>
      <point x="-264" y="-120" type="line"/>
      <point x="-316" y="-200" type="line"/>
      <point x="-272" y="-236"/>
      <point x="-219" y="-260"/>
    </contour>
    <contour>
      <point x="88" y="468" type="line"/>
      <point x="267" y="468" type="line"/>
      <point x="271" y="490" type="line"/>
      <point x="92" y="490" type="line"/>
    </contour>
  </outline>
</glyph>
<glyph name="ae" format="2">
  <advance width="710"/>
  <unicode hex="00E6"/>
  <outline>
    <contour>
      <point x="133" y="-14" type="curve"/>
      <point x="197" y="32"/>
      <point x="247" y="131"/>
      <point x="300" y="263" type="curve"/>
      <point x="308" y="261" type="line"/>
      <point x="516" y="448" type="line"/>
      <point x="468" y="476"/>
      <point x="402" y="496"/>
      <point x="342" y="504" type="curve"/>
      <point x="174" y="452"/>
      <point x="12" y="304"/>
      <point x="12" y="140" type="curve" smooth="yes"/>
      <point x="12" y="54"/>
      <point x="59" y="-6"/>
    </contour>
    <contour>
      <point x="192" y="96" type="curve"/>
      <point x="169" y="108"/>
      <point x="155" y="143"/>
      <point x="155" y="184" type="curve" smooth="yes"/>
      <point x="155" y="317"/>
      <point x="212" y="424"/>
      <point x="292" y="464" type="curve"/>
      <point x="314" y="460"/>
      <point x="332" y="450"/>
      <point x="348" y="436" type="curve"/>
      <point x="308" y="328"/>
      <point x="256" y="180"/>
    </contour>
    <component base="e" xOffset="282"/>
  </outline>
</glyph>
<glyph name="eth" format="2">
  <advance width="536"/>
  <unicode hex="00F0"/>
  <outline>
    <contour>
      <point x="212" y="-14" type="curve"/>
      <point x="398" y="33"/>
      <point x="530" y="200"/>
      <point x="530" y="390" type="curve" smooth="yes"/>
      <point x="530" y="552"/>
      <point x="422" y="703"/>
      <point x="270" y="754" type="curve"/>
      <point x="262" y="742" type="line"/>
      <point x="340" y="672"/>
      <point x="378" y="568"/>
      <point x="378" y="460" type="curve"/>
      <point x="370" y="458" type="line"/>
      <point x="310" y="504" type="line"/>
      <point x="138" y="464"/>
      <point x="32" y="350"/>
      <point x="32" y="202" type="curve" smooth="yes"/>
      <point x="32" y="81"/>
      <point x="107" y="-14"/>
    </contour>
    <contour>
      <point x="238" y="14" type="curve"/>
      <point x="204" y="34"/>
      <point x="182" y="103"/>
      <point x="182" y="190" type="curve" smooth="yes"/>
      <point x="182" y="301"/>
      <point x="229" y="405"/>
      <point x="302" y="456" type="curve"/>
      <point x="338" y="447"/>
      <point x="372" y="435"/>
      <point x="390" y="424" type="curve"/>
      <point x="378" y="440" type="line"/>
      <point x="378" y="265"/>
      <point x="323" y="98"/>
    </contour>
    <contour>
      <point x="226" y="560" type="line"/>
      <point x="518" y="684" type="line"/>
      <point x="510" y="702" type="line"/>
      <point x="218" y="578" type="line"/>
    </contour>
  </outline>
</glyph>
<glyph name="divide" format="2">
  <advance width="458"/>
  <unicode hex="00F7"/>
  <outline>
    <contour>
      <point x="30" y="207" type="line"/>
      <point x="406" y="207" type="line"/>
      <point x="422" y="265" type="line"/>
      <point x="46" y="265" type="line"/>
    </contour>
    <contour>
      <point x="174" y="48" type="curve" smooth="yes"/>
      <point x="202" y="47"/>
      <point x="230" y="71"/>
      <point x="238" y="100" type="curve" smooth="yes"/>
      <point x="246" y="129"/>
      <point x="231" y="153"/>
      <point x="202" y="153" type="curve" smooth="yes"/>
      <point x="176" y="154"/>
      <point x="146" y="131"/>
      <point x="138" y="102" type="curve" smooth="yes"/>
      <point x="130" y="73"/>
      <point x="147" y="48"/>
    </contour>
    <contour>
      <point x="249" y="316" type="curve" smooth="yes"/>
      <point x="277" y="315"/>
      <point x="305" y="339"/>
      <point x="313" y="368" type="curve" smooth="yes"/>
      <point x="321" y="397"/>
      <point x="306" y="421"/>
      <point x="277" y="422" type="curve" smooth="yes"/>
      <point x="251" y="422"/>
      <point x="221" y="399"/>
      <point x="213" y="370" type="curve" smooth="yes"/>
      <point x="205" y="341"/>
      <point x="222" y="316"/>
    </contour>
  </outline>
</glyph>
<glyph name="oslash" format="2">
  <advance width="494"/>
  <unicode hex="00F8"/>
  <outline>
    <contour>
      <point x="-30" y="-4" type="line"/>
      <point x="540" y="490" type="line"/>
      <point x="526" y="508" type="line"/>
      <point x="-44" y="14" type="line"/>
    </contour>
    <component base="o"/>
  </outline>
</glyph>
<glyph name="thorn" format="2">
  <advance width="548"/>
  <unicode hex="00FE"/>
  <outline>
    <contour>
      <point x="68" y="-256" type="line"/>
      <point x="138" y="4" type="line"/>
      <point x="120" y="-6" type="line"/>
      <point x="141" y="-11"/>
      <point x="165" y="-14"/>
      <point x="184" y="-14" type="curve"/>
      <point x="364" y="30"/>
      <point x="527" y="180"/>
      <point x="527" y="344" type="curve" smooth="yes"/>
      <point x="527" y="432"/>
      <point x="476" y="496"/>
      <point x="400" y="504" type="curve"/>
      <point x="308" y="436"/>
      <point x="244" y="270"/>
      <point x="164" y="78" type="curve"/>
      <point x="156" y="80" type="line"/>
      <point x="344" y="740" type="line"/>
      <point x="284" y="768" type="line"/>
      <point x="202" y="736" type="line" name="_corner00"/>
      <point x="-70" y="-248" type="line"/>
    </contour>
    <contour>
      <point x="244" y="32" type="curve"/>
      <point x="220" y="35"/>
      <point x="198" y="40"/>
      <point x="176" y="52" type="curve"/>
      <point x="216" y="160"/>
      <point x="288" y="316"/>
      <point x="352" y="404" type="curve"/>
      <point x="372" y="388"/>
      <point x="384" y="356"/>
      <point x="384" y="316" type="curve" smooth="yes"/>
      <point x="384" y="188"/>
      <point x="324" y="80"/>
    </contour>
  </outline>
</glyph>
<glyph name="dcroat" format="2">
  <advance width="554"/>
  <unicode hex="0111"/>
  <outline>
    <contour>
      <point x="242" y="604" type="line"/>
      <point x="616" y="604" type="line"/>
      <point x="618" y="624" type="line"/>
      <point x="244" y="624" type="line"/>
    </contour>
    <component base="d" identifier="F1FECD95"/>
  </outline>
</glyph>
<glyph name="Gcommaaccent" format="2">
  <advance width="597"/>
  <unicode hex="0122"/>
  <outline>
    <contour>
      <point x="298" y="-14" type="curve"/>
      <point x="528" y="124" type="line"/>
      <point x="582" y="324" type="line"/>
      <point x="440" y="324" type="line" name="_corner00"/>
      <point x="372" y="67" type="line"/>
      <point x="358" y="60" type="line"/>
      <point x="262" y="64"/>
      <point x="202" y="144"/>
      <point x="202" y="268" type="curve" smooth="yes"/>
      <point x="202" y="449"/>
      <point x="292" y="605"/>
      <point x="428" y="692" type="curve"/>
      <point x="488" y="644"/>
      <point x="530" y="552"/>
      <point x="542" y="428" type="curve"/>
      <point x="558" y="428" type="line"/>
      <point x="622" y="632" type="line"/>
      <point x="566" y="684"/>
      <point x="500" y="714"/>
      <point x="442" y="714" type="curve"/>
      <point x="214" y="658"/>
      <point x="42" y="444"/>
      <point x="42" y="228" type="curve" smooth="yes"/>
      <point x="42" y="81"/>
      <point x="142" y="-14"/>
    </contour>
    <component base="commaaccentcomb" xOffset="92"/>
  </outline>
</glyph>
<glyph name="Hbar" format="2">
  <advance width="772"/>
  <unicode hex="0126"/>
  <outline>
    <contour>
      <point x="126" y="579" type="line"/>
      <point x="836" y="579" type="line"/>
      <point x="838" y="597" type="line"/>
      <point x="128" y="597" type="line"/>
    </contour>
    <component base="H"/>
  </outline>
</glyph>
<glyph name="hbar" format="2">
  <advance width="576"/>
  <unicode hex="0127"/>
  <outline>
    <contour>
      <point x="106" y="604" type="line"/>
      <point x="480" y="604" type="line"/>
      <point x="482" y="624" type="line"/>
      <point x="108" y="624" type="line"/>
    </contour>
    <component base="h"/>
  </outline>
</glyph>
<glyph name="idotless" format="2">
  <advance width="310"/>
  <unicode hex="0131"/>
  <anchor x="148" y="0" name="ogonek"/>
  <anchor x="220" y="490" name="top"/>
  <outline>
    <contour>
      <point x="122" y="-18" type="line"/>
      <point x="154" y="4" type="line" name="_corner00"/>
      <point x="288" y="488" type="line"/>
      <point x="228" y="508" type="line"/>
      <point x="145" y="476" type="line" name="_corner01"/>
      <point x="18" y="24" type="line"/>
    </contour>
  </outline>
</glyph>
<glyph name="Lslash" format="2">
  <advance width="632"/>
  <unicode hex="0141"/>
  <outline>
    <contour>
      <point x="227" y="316" type="line"/>
      <point x="510" y="484" type="line"/>
      <point x="500" y="504" type="line"/>
      <point x="221" y="336" type="line"/>
    </contour>
    <contour>
      <point x="42" y="216" type="line"/>
      <point x="226" y="324" type="line"/>
      <point x="220" y="344" type="line"/>
      <point x="32" y="236" type="line"/>
    </contour>
    <component base="L" xOffset="32"/>
  </outline>
</glyph>
<glyph name="lslash" format="2">
  <advance width="320"/>
  <unicode hex="0142"/>
  <outline>
    <contour>
      <point x="179" y="343" type="line"/>
      <point x="420" y="506" type="line"/>
      <point x="408" y="525" type="line"/>
      <point x="179" y="368" type="line"/>
    </contour>
    <contour>
      <point x="-30" y="215" type="line"/>
      <point x="179" y="359" type="line"/>
      <point x="179" y="384" type="line"/>
      <point x="-41" y="234" type="line"/>
    </contour>
    <component base="l" xOffset="14"/>
  </outline>
</glyph>
<glyph name="OE" format="2">
  <advance width="898"/>
  <unicode hex="0152"/>
  <outline>
    <contour>
      <point x="265" y="-14" type="curve"/>
      <point x="331" y="0"/>
      <point x="391" y="27"/>
      <point x="444" y="64" type="curve"/>
      <point x="399" y="123" type="line"/>
      <point x="368" y="76"/>
      <point x="329" y="38"/>
      <point x="285" y="10" type="curve"/>
      <point x="241" y="38"/>
      <point x="208" y="112"/>
      <point x="208" y="224" type="curve" smooth="yes"/>
      <point x="208" y="432"/>
      <point x="293" y="606"/>
      <point x="425" y="690" type="curve"/>
      <point x="462" y="670"/>
      <point x="491" y="611"/>
      <point x="499" y="529" type="curve"/>
      <point x="608" y="639" type="line"/>
      <point x="568" y="684"/>
      <point x="510" y="712"/>
      <point x="441" y="714" type="curve"/>
      <point x="209" y="662"/>
      <point x="44" y="448"/>
      <point x="44" y="228" type="curve" smooth="yes"/>
      <point x="44" y="88"/>
      <point x="133" y="-10"/>
    </contour>
    <component base="E" xOffset="366"/>
  </outline>
</glyph>
<glyph name="oe" format="2">
  <advance width="722"/>
  <unicode hex="0153"/>
  <outline>
    <contour>
      <point x="172" y="-14" type="curve"/>
      <point x="346" y="20"/>
      <point x="458" y="164"/>
      <point x="458" y="320" type="curve" smooth="yes"/>
      <point x="458" y="424"/>
      <point x="408" y="500"/>
      <point x="308" y="504" type="curve"/>
      <point x="131" y="469"/>
      <point x="10" y="324"/>
      <point x="10" y="168" type="curve" smooth="yes"/>
      <point x="10" y="60"/>
      <point x="72" y="-10"/>
    </contour>
    <contour>
      <point x="195" y="14" type="curve"/>
      <point x="170" y="22"/>
      <point x="157" y="70"/>
      <point x="157" y="132" type="curve" smooth="yes"/>
      <point x="157" y="270"/>
      <point x="209" y="431"/>
      <point x="286" y="476" type="curve"/>
      <point x="312" y="469"/>
      <point x="324" y="424"/>
      <point x="324" y="362" type="curve" smooth="yes"/>
      <point x="324" y="221"/>
      <point x="274" y="59"/>
    </contour>
    <component base="e" xOffset="294"/>
  </outline>
</glyph>
<glyph name="florin" format="2">
  <advance width="566"/>
  <unicode hex="0192"/>
  <outline>
    <contour>
      <point x="-93" y="-264" type="curve"/>
      <point x="24" y="-241"/>
      <point x="178" y="-153"/>
      <point x="250" y="-52" type="curve"/>
      <point x="496" y="644" type="line" smooth="yes"/>
      <point x="504" y="668"/>
      <point x="518" y="687"/>
      <point x="536" y="700" type="curve"/>
      <point x="684" y="612" type="line"/>
      <point x="724" y="616" type="line"/>
      <point x="766" y="704" type="line"/>
      <point x="721" y="741"/>
      <point x="668" y="764"/>
      <point x="632" y="764" type="curve"/>
      <point x="526" y="743"/>
      <point x="380" y="652"/>
      <point x="308" y="544" type="curve"/>
      <point x="66" y="-132" type="line" smooth="yes"/>
      <point x="56" y="-160"/>
      <point x="42" y="-182"/>
      <point x="22" y="-196" type="curve"/>
      <point x="-134" y="-112" type="line"/>
      <point x="-174" y="-120" type="line"/>
      <point x="-226" y="-200" type="line"/>
      <point x="-182" y="-236"/>
      <point x="-129" y="-260"/>
    </contour>
    <contour>
      <point x="147" y="380" type="line"/>
      <point x="520" y="380" type="line"/>
      <point x="525" y="400" type="line"/>
      <point x="152" y="400" type="line"/>
    </contour>
  </outline>
</glyph>
<glyph name="jdotless" format="2">
  <advance width="292"/>
  <unicode hex="0237"/>
  <anchor x="232" y="490" name="top"/>
  <outline>
    <contour>
      <point x="-160" y="-264" type="curve"/>
      <point x="-49" y="-234"/>
      <point x="77" y="-150"/>
      <point x="148" y="-56" type="curve"/>
      <point x="300" y="488" type="line"/>
      <point x="240" y="508" type="line"/>
      <point x="157" y="476" type="line" name="_corner00"/>
      <point x="-16" y="-136" type="line" smooth="yes"/>
      <point x="-24" y="-164"/>
      <point x="-40" y="-188"/>
      <point x="-60" y="-200" type="curve"/>
      <point x="-188" y="-116" type="line"/>
      <point x="-228" y="-120" type="line"/>
      <point x="-284" y="-212" type="line"/>
      <point x="-240" y="-248"/>
      <point x="-196" y="-264"/>
    </contour>
  </outline>
</glyph>
<glyph name="gravecomb" format="2">
  <advance width="400"/>
  <unicode hex="0300"/>
  <anchor x="200" y="490" name="_top"/>
  <outline>
    <contour>
      <point x="256" y="546" type="line"/>
      <point x="268" y="551" type="line"/>
      <point x="248" y="736" type="line"/>
      <point x="136" y="748" type="line"/>
      <point x="124" y="724" type="line"/>
    </contour>
  </outline>
</glyph>
<glyph name="acutecomb" format="2">
  <advance width="400"/>
  <unicode hex="0301"/>
  <anchor x="200" y="490" name="_top"/>
  <outline>
    <contour>
      <point x="156" y="546" type="line"/>
      <point x="352" y="720" type="line"/>
      <point x="338" y="746" type="line"/>
      <point x="228" y="740" type="line"/>
      <point x="146" y="556" type="line"/>
    </contour>
  </outline>
</glyph>
<glyph name="circumflexcomb" format="2">
  <advance width="400"/>
  <unicode hex="0302"/>
  <anchor x="200" y="490" name="_top"/>
  <outline>
    <contour>
      <point x="84" y="548" type="line"/>
      <point x="230" y="632" type="line"/>
      <point x="238" y="632" type="line"/>
      <point x="340" y="548" type="line"/>
      <point x="348" y="552" type="line"/>
      <point x="260" y="742" type="line"/>
      <point x="240" y="742" type="line"/>
      <point x="78" y="555" type="line"/>
    </contour>
  </outline>
</glyph>
<glyph name="tildecomb" format="2">
  <advance width="400"/>
  <unicode hex="0303"/>
  <anchor x="200" y="490" name="_top"/>
  <outline>
    <contour>
      <point x="78" y="582" type="curve"/>
      <point x="94" y="576" type="line"/>
      <point x="102" y="596"/>
      <point x="114" y="612"/>
      <point x="134" y="628" type="curve"/>
      <point x="178" y="628"/>
      <point x="230" y="600"/>
      <point x="278" y="600" type="curve"/>
      <point x="322" y="620"/>
      <point x="366" y="666"/>
      <point x="386" y="726" type="curve"/>
      <point x="370" y="732" type="line"/>
      <point x="362" y="712"/>
      <point x="350" y="696"/>
      <point x="330" y="680" type="curve"/>
      <point x="286" y="680"/>
      <point x="234" y="708"/>
      <point x="186" y="708" type="curve"/>
      <point x="142" y="688"/>
      <point x="98" y="642"/>
    </contour>
  </outline>
</glyph>
<glyph name="macroncomb" format="2">
  <advance width="400"/>
  <unicode hex="0304"/>
  <anchor x="200" y="490" name="_top"/>
  <outline>
    <contour>
      <point x="96" y="622" type="line"/>
      <point x="352" y="622" type="line"/>
      <point x="356" y="656" type="line"/>
      <point x="100" y="656" type="line"/>
    </contour>
  </outline>
</glyph>
<glyph name="brevecomb" format="2">
  <advance width="400"/>
  <unicode hex="0306"/>
  <anchor x="200" y="490" name="_top"/>
  <outline>
    <contour>
      <point x="224" y="560" type="curve"/>
      <point x="292" y="584"/>
      <point x="346" y="642"/>
      <point x="358" y="710" type="curve"/>
      <point x="344" y="716" type="line"/>
      <point x="328" y="680"/>
      <point x="281" y="652"/>
      <point x="224" y="644" type="curve"/>
      <point x="167" y="644"/>
      <point x="126" y="672"/>
      <point x="120" y="716" type="curve"/>
      <point x="104" y="712" type="line"/>
      <point x="104" y="624"/>
      <point x="156" y="560"/>
    </contour>
  </outline>
</glyph>
<glyph name="dotaccentcomb" format="2">
  <advance width="400"/>
  <unicode hex="0307"/>
  <anchor x="200" y="490" name="_top"/>
  <outline>
    <contour>
      <point x="261" y="590" type="line"/>
      <point x="269" y="630"/>
      <point x="283" y="670"/>
      <point x="303" y="710" type="curve"/>
      <point x="287" y="724" type="line"/>
      <point x="175" y="708" type="line"/>
      <point x="163" y="676"/>
      <point x="157" y="632"/>
      <point x="159" y="596" type="curve"/>
    </contour>
  </outline>
</glyph>
<glyph name="dieresiscomb" format="2">
  <advance width="400"/>
  <unicode hex="0308"/>
  <anchor x="200" y="490" name="_top"/>
  <outline>
    <contour>
      <point x="324" y="590" type="line"/>
      <point x="332" y="630"/>
      <point x="342" y="666"/>
      <point x="362" y="706" type="curve"/>
      <point x="346" y="720" type="line"/>
      <point x="247" y="704" type="line"/>
      <point x="237" y="672"/>
      <point x="231" y="632"/>
      <point x="233" y="596" type="curve"/>
    </contour>
    <contour>
      <point x="188" y="592" type="line"/>
      <point x="196" y="632"/>
      <point x="208" y="668"/>
      <point x="228" y="704" type="curve"/>
      <point x="216" y="716" type="line"/>
      <point x="114" y="704" type="line"/>
      <point x="104" y="672"/>
      <point x="98" y="632"/>
      <point x="98" y="596" type="curve"/>
    </contour>
  </outline>
</glyph>
<glyph name="ringcomb" format="2">
  <advance width="400"/>
  <unicode hex="030A"/>
  <anchor x="200" y="490" name="_top"/>
  <outline>
    <contour>
      <point x="220" y="532" type="curve"/>
      <point x="288" y="552"/>
      <point x="318" y="598"/>
      <point x="318" y="650" type="curve" smooth="yes"/>
      <point x="318" y="702"/>
      <point x="280" y="735"/>
      <point x="212" y="735" type="curve"/>
      <point x="152" y="715"/>
      <point x="113" y="671"/>
      <point x="113" y="619" type="curve" smooth="yes"/>
      <point x="113" y="567"/>
      <point x="152" y="532"/>
    </contour>
    <contour>
      <point x="212" y="560" type="curve" smooth="yes"/>
      <point x="171" y="560"/>
      <point x="144" y="587"/>
      <point x="144" y="629" type="curve" smooth="yes"/>
      <point x="144" y="677"/>
      <point x="175" y="708"/>
      <point x="218" y="708" type="curve" smooth="yes"/>
      <point x="260" y="708"/>
      <point x="287" y="681"/>
      <point x="287" y="638" type="curve" smooth="yes"/>
      <point x="287" y="591"/>
      <point x="256" y="560"/>
    </contour>
  </outline>
</glyph>
<glyph name="hungarumlautcomb" format="2">
  <advance width="400"/>
  <unicode hex="030B"/>
  <anchor x="200" y="490" name="_top"/>
  <outline>
    <contour>
      <point x="131" y="546" type="line"/>
      <point x="299" y="724" type="line"/>
      <point x="287" y="748" type="line"/>
      <point x="191" y="736" type="line"/>
      <point x="119" y="554" type="line"/>
    </contour>
    <contour>
      <point x="247" y="546" type="line"/>
      <point x="449" y="718" type="line"/>
      <point x="437" y="744" type="line"/>
      <point x="343" y="740" type="line"/>
      <point x="237" y="556" type="line"/>
    </contour>
  </outline>
</glyph>
<glyph name="caroncomb" format="2">
  <advance width="400"/>
  <unicode hex="030C"/>
  <anchor x="200" y="490" name="_top"/>
  <outline>
    <contour>
      <point x="192" y="548" type="line"/>
      <point x="212" y="548" type="line"/>
      <point x="365" y="739" type="line"/>
      <point x="359" y="746" type="line"/>
      <point x="220" y="660" type="line"/>
      <point x="212" y="660" type="line"/>
      <point x="105" y="746" type="line"/>
      <point x="97" y="742" type="line"/>
    </contour>
  </outline>
</glyph>
<glyph name="commaaccentcomb" format="2">
  <advance width="400"/>
  <unicode hex="0326"/>
  <anchor x="200" y="0" name="_bottom"/>
  <outline>
    <contour>
      <point x="114" y="-248" type="line"/>
      <point x="186" y="-196"/>
      <point x="226" y="-148"/>
      <point x="250" y="-52" type="curve"/>
      <point x="234" y="-38" type="line"/>
      <point x="124" y="-48" type="line"/>
      <point x="116" y="-76"/>
      <point x="110" y="-116"/>
      <point x="112" y="-152" type="curve"/>
      <point x="186" y="-160" type="line"/>
      <point x="174" y="-140" type="line"/>
      <point x="162" y="-176"/>
      <point x="142" y="-206"/>
      <point x="102" y="-230" type="curve"/>
    </contour>
  </outline>
</glyph>
<glyph name="cedillacomb" format="2">
  <advance width="400"/>
  <unicode hex="0327"/>
  <anchor x="200" y="0" name="_bottom"/>
  <outline>
    <contour>
      <point x="142" y="-264" type="curve"/>
      <point x="230" y="-244"/>
      <point x="296" y="-196"/>
      <point x="296" y="-140" type="curve" smooth="yes"/>
      <point x="296" y="-98"/>
      <point x="258" y="-64"/>
      <point x="204" y="-64" type="curve"/>
      <point x="156" y="-102" type="line"/>
      <point x="152" y="-98" type="line"/>
      <point x="218" y="4" type="line"/>
      <point x="206" y="10" type="line"/>
      <point x="128" y="-112" type="line"/>
      <point x="140" y="-124" type="line"/>
      <point x="153" y="-117"/>
      <point x="169" y="-112"/>
      <point x="182" y="-112" type="curve" smooth="yes"/>
      <point x="208" y="-112"/>
      <point x="224" y="-131"/>
      <point x="224" y="-160" type="curve" smooth="yes"/>
      <point x="224" y="-191"/>
      <point x="207" y="-219"/>
      <point x="180" y="-232" type="curve"/>
      <point x="108" y="-176" type="line"/>
      <point x="84" y="-180" type="line"/>
      <point x="56" y="-232" type="line"/>
      <point x="84" y="-252"/>
      <point x="122" y="-264"/>
    </contour>
  </outline>
</glyph>
<glyph name="ogonekcomb" format="2">
  <advance width="400"/>
  <unicode hex="0328"/>
  <anchor x="200" y="0" name="_ogonek"/>
  <outline>
    <contour>
      <point x="124" y="-222" type="curve"/>
      <point x="236" y="-124" type="line"/>
      <point x="224" y="-110" type="line"/>
      <point x="206" y="-128"/>
      <point x="186" y="-146"/>
      <point x="164" y="-160" type="curve"/>
      <point x="137" y="-160"/>
      <point x="120" y="-143"/>
      <point x="120" y="-116" type="curve" smooth="yes"/>
      <point x="120" y="-81"/>
      <point x="151" y="-36"/>
      <point x="200" y="0" type="curve"/>
      <point x="194" y="8" type="line"/>
      <point x="94" y="-32"/>
      <point x="32" y="-96"/>
      <point x="32" y="-148" type="curve" smooth="yes"/>
      <point x="32" y="-191"/>
      <point x="70" y="-222"/>
    </contour>
  </outline>
</glyph>
<glyph name="Germandbls" format="2">
  <advance width="676"/>
  <unicode hex="1E9E"/>
  <outline>
    <contour>
      <point x="-180" y="-264" type="curve"/>
      <point x="-63" y="-241"/>
      <point x="76" y="-153"/>
      <point x="148" y="-52" type="curve"/>
      <point x="320" y="552" type="line" smooth="yes"/>
      <point x="337" y="612"/>
      <point x="382" y="661"/>
      <point x="436" y="684" type="curve"/>
      <point x="460" y="668"/>
      <point x="476" y="632"/>
      <point x="476" y="588" type="curve" smooth="yes"/>
      <point x="476" y="540"/>
      <point x="460" y="495"/>
      <point x="428" y="448" type="curve" smooth="yes"/>
      <point x="368" y="360" type="line"/>
      <point x="468" y="280"/>
      <point x="568" y="184"/>
      <point x="576" y="116" type="curve"/>
      <point x="556" y="89"/>
      <point x="531" y="70"/>
      <point x="488" y="52" type="curve"/>
      <point x="312" y="152" type="line"/>
      <point x="272" y="145" type="line"/>
      <point x="220" y="56" type="line"/>
      <point x="254" y="16"/>
      <point x="320" y="-14"/>
      <point x="372" y="-14" type="curve"/>
      <point x="524" y="21"/>
      <point x="652" y="117"/>
      <point x="652" y="220" type="curve" smooth="yes"/>
      <point x="652" y="315"/>
      <point x="553" y="397"/>
      <point x="461" y="469" type="curve"/>
      <point x="462" y="473" type="line"/>
      <point x="564" y="473"/>
      <point x="632" y="526"/>
      <point x="632" y="596" type="curve" smooth="yes"/>
      <point x="632" y="667"/>
      <point x="561" y="714"/>
      <point x="456" y="714" type="curve"/>
      <point x="350" y="693"/>
      <point x="226" y="602"/>
      <point x="154" y="494" type="curve"/>
      <point x="-24" y="-132" type="line" smooth="yes"/>
      <point x="-32" y="-160"/>
      <point x="-48" y="-182"/>
      <point x="-68" y="-196" type="curve"/>
      <point x="-224" y="-112" type="line"/>
      <point x="-264" y="-120" type="line"/>
      <point x="-316" y="-200" type="line"/>
      <point x="-272" y="-236"/>
      <point x="-216" y="-260"/>
    </contour>
    <contour>
      <point x="88" y="468" type="line"/>
      <point x="268" y="468" type="line"/>
      <point x="272" y="490" type="line"/>
      <point x="92" y="490" type="line"/>
    </contour>
  </outline>
</glyph>
<glyph name="endash" format="2">
  <advance width="443"/>
  <unicode hex="2013"/>
  <outline>
    <contour>
      <point x="37" y="246" type="line"/>
      <point x="415" y="246" type="line"/>
      <point x="425" y="294" type="line"/>
      <point x="47" y="294" type="line"/>
    </contour>
  </outline>
</glyph>
<glyph name="emdash" format="2">
  <advance width="723"/>
  <unicode hex="2014"/>
  <outline>
    <contour>
      <point x="37" y="246" type="line"/>
      <point x="695" y="246" type="line"/>
      <point x="705" y="294" type="line"/>
      <point x="47" y="294" type="line"/>
    </contour>
  </outline>
</glyph>
<glyph name="quoteright" format="2">
  <advance width="232"/>
  <unicode hex="2019"/>
  <outline>
    <contour>
      <point x="174" y="518" type="line"/>
      <point x="254" y="570"/>
      <point x="298" y="638"/>
      <point x="322" y="750" type="curve"/>
      <point x="306" y="764" type="line"/>
      <point x="186" y="748" type="line"/>
      <point x="174" y="717"/>
      <point x="168" y="669"/>
      <point x="170" y="634" type="curve"/>
      <point x="255" y="630" type="line"/>
      <point x="239" y="646" type="line"/>
      <point x="231" y="606"/>
      <point x="207" y="566"/>
      <point x="163" y="534" type="curve"/>
    </contour>
  </outline>
</glyph>
<glyph name="quotesinglbase" format="2">
  <advance width="228"/>
  <unicode hex="201A"/>
  <outline>
    <contour>
      <point x="-2" y="-108" type="line"/>
      <point x="70" y="-52"/>
      <point x="110" y="0"/>
      <point x="134" y="96" type="curve"/>
      <point x="118" y="114" type="line"/>
      <point x="8" y="100" type="line"/>
      <point x="0" y="72"/>
      <point x="-6" y="32"/>
      <point x="-4" y="-4" type="curve"/>
      <point x="70" y="-8" type="line"/>
      <point x="58" y="8" type="line"/>
      <point x="50" y="-28"/>
      <point x="26" y="-62"/>
      <point x="-14" y="-90" type="curve"/>
    </contour>
  </outline>
</glyph>
<glyph name="dagger" format="2">
  <advance width="282"/>
  <unicode hex="2020"/>
  <outline>
    <contour>
      <point x="71" y="0" type="line"/>
      <point x="41" y="0" type="line"/>
      <point x="124" y="299" type="line" smooth="yes"/>
      <point x="146" y="380"/>
      <point x="152" y="426"/>
      <point x="153" y="473" type="curve"/>
      <point x="182" y="499"/>
      <point x="196" y="531"/>
      <point x="215" y="594" type="curve"/>
      <point x="172" y="594"/>
      <point x="140" y="572"/>
      <point x="132" y="572" type="curve"/>
      <point x="109" y="603" type="line"/>
      <point x="150" y="632" type="line"/>
      <point x="158" y="632"/>
      <point x="178" y="612"/>
      <point x="221" y="612" type="curve"/>
      <point x="244" y="688"/>
      <point x="228" y="706"/>
      <point x="234" y="726" type="curve"/>
      <point x="288" y="759" type="line"/>
      <point x="322" y="726" type="line"/>
      <point x="316" y="706"/>
      <point x="289" y="688"/>
      <point x="266" y="612" type="curve"/>
      <point x="308" y="612"/>
      <point x="340" y="632"/>
      <point x="348" y="632" type="curve"/>
      <point x="371" y="603" type="line"/>
      <point x="330" y="572" type="line"/>
      <point x="322" y="572"/>
      <point x="302" y="594"/>
      <point x="260" y="594" type="curve"/>
      <point x="241" y="531"/>
      <point x="234" y="499"/>
      <point x="247" y="473" type="curve"/>
      <point x="220" y="426"/>
      <point x="196" y="379"/>
      <point x="170" y="299" type="curve" smooth="yes"/>
    </contour>
  </outline>
</glyph>
<glyph name="daggerdbl" format="2">
  <advance width="305"/>
  <unicode hex="2021"/>
  <outline>
    <contour>
      <point x="-54" y="27" type="line"/>
      <point x="-31" y="-2" type="line"/>
      <point x="-23" y="-2"/>
      <point x="9" y="18"/>
      <point x="51" y="18" type="curve"/>
      <point x="28" y="-58"/>
      <point x="1" y="-76"/>
      <point x="-5" y="-96" type="curve"/>
      <point x="29" y="-129" type="line"/>
      <point x="83" y="-96" type="line"/>
      <point x="89" y="-76"/>
      <point x="73" y="-58"/>
      <point x="96" y="18" type="curve"/>
      <point x="139" y="18"/>
      <point x="159" y="-2"/>
      <point x="167" y="-2" type="curve"/>
      <point x="208" y="27" type="line"/>
      <point x="185" y="58" type="line"/>
      <point x="177" y="58"/>
      <point x="145" y="36"/>
      <point x="102" y="36" type="curve"/>
      <point x="121" y="99"/>
      <point x="135" y="131"/>
      <point x="164" y="157" type="curve"/>
      <point x="165" y="215"/>
      <point x="171" y="264"/>
      <point x="185" y="314" type="curve" smooth="yes"/>
      <point x="199" y="364"/>
      <point x="222" y="414"/>
      <point x="257" y="473" type="curve"/>
      <point x="244" y="499"/>
      <point x="251" y="531"/>
      <point x="270" y="594" type="curve"/>
      <point x="312" y="594"/>
      <point x="332" y="572"/>
      <point x="340" y="572" type="curve"/>
      <point x="381" y="603" type="line"/>
      <point x="358" y="632" type="line"/>
      <point x="350" y="632"/>
      <point x="318" y="612"/>
      <point x="276" y="612" type="curve"/>
      <point x="299" y="688"/>
      <point x="326" y="706"/>
      <point x="332" y="726" type="curve"/>
      <point x="298" y="759" type="line"/>
      <point x="244" y="726" type="line"/>
      <point x="238" y="706"/>
      <point x="254" y="688"/>
      <point x="231" y="612" type="curve"/>
      <point x="188" y="612"/>
      <point x="168" y="632"/>
      <point x="160" y="632" type="curve"/>
      <point x="119" y="603" type="line"/>
      <point x="142" y="572" type="line"/>
      <point x="150" y="572"/>
      <point x="182" y="594"/>
      <point x="225" y="594" type="curve"/>
      <point x="206" y="531"/>
      <point x="192" y="499"/>
      <point x="163" y="473" type="curve"/>
      <point x="162" y="414"/>
      <point x="157" y="366"/>
      <point x="143" y="317" type="curve" smooth="yes"/>
      <point x="129" y="268"/>
      <point x="106" y="219"/>
      <point x="70" y="157" type="curve"/>
      <point x="83" y="131"/>
      <point x="76" y="99"/>
      <point x="57" y="36" type="curve"/>
      <point x="15" y="36"/>
      <point x="-5" y="58"/>
      <point x="-13" y="58" type="curve"/>
    </contour>
  </outline>
</glyph>
<glyph name="bullet" format="2">
  <advance width="374"/>
  <unicode hex="2022"/>
  <outline>
    <contour>
      <point x="199" y="180" type="curve" smooth="yes"/>
      <point x="256" y="180"/>
      <point x="301" y="225"/>
      <point x="301" y="284" type="curve" smooth="yes"/>
      <point x="301" y="343"/>
      <point x="256" y="388"/>
      <point x="199" y="388" type="curve" smooth="yes"/>
      <point x="142" y="388"/>
      <point x="97" y="343"/>
      <point x="97" y="284" type="curve" smooth="yes"/>
      <point x="97" y="225"/>
      <point x="142" y="180"/>
    </contour>
  </outline>
</glyph>
<glyph name="perthousand" format="2">
  <advance width="985"/>
  <unicode hex="2030"/>
  <outline>
    <contour>
      <point x="735" y="-13" type="curve"/>
      <point x="839" y="6"/>
      <point x="920" y="95"/>
      <point x="920" y="189" type="curve" smooth="yes"/>
      <point x="920" y="254"/>
      <point x="880" y="299"/>
      <point x="819" y="301" type="curve"/>
      <point x="714" y="281"/>
      <point x="635" y="193"/>
      <point x="635" y="98" type="curve" smooth="yes"/>
      <point x="635" y="32"/>
      <point x="673" y="-11"/>
    </contour>
    <contour>
      <point x="748" y="4" type="curve"/>
      <point x="726" y="11"/>
      <point x="717" y="29"/>
      <point x="717" y="63" type="curve" smooth="yes"/>
      <point x="717" y="143"/>
      <point x="764" y="260"/>
      <point x="806" y="284" type="curve"/>
      <point x="830" y="275"/>
      <point x="838" y="260"/>
      <point x="838" y="227" type="curve" smooth="yes"/>
      <point x="838" y="146"/>
      <point x="791" y="28"/>
    </contour>
    <component base="percent"/>
  </outline>
</glyph>
<glyph name="guilsinglleft" format="2">
  <advance width="296"/>
  <unicode hex="2039"/>
  <outline>
    <contour>
      <point x="179" y="16" type="line"/>
      <point x="192" y="22" type="line"/>
      <point x="146" y="238" type="line"/>
      <point x="268" y="448" type="line"/>
      <point x="258" y="456" type="line"/>
      <point x="26" y="240" type="line"/>
    </contour>
  </outline>
</glyph>
<glyph name="guilsinglright" format="2">
  <advance width="308"/>
  <unicode hex="203A"/>
  <outline>
    <contour>
      <point x="37" y="16" type="line"/>
      <point x="274" y="240" type="line"/>
      <point x="123" y="456" type="line"/>
      <point x="111" y="452" type="line"/>
      <point x="154" y="238" type="line"/>
      <point x="26" y="25" type="line"/>
    </contour>
  </outline>
</glyph>
<glyph name="fraction" format="2">
  <advance width="604"/>
  <unicode hex="2044"/>
  <outline>
    <contour>
      <point x="-111" y="-250" type="line"/>
      <point x="-44" y="-250" type="line"/>
      <point x="718" y="750" type="line"/>
      <point x="651" y="750" type="line"/>
    </contour>
  </outline>
</glyph>
<glyph name="euro" format="2">
  <advance width="619"/>
  <unicode hex="20AC"/>
  <outline>
    <contour>
      <point x="50" y="383" type="line"/>
      <point x="523" y="383" type="line"/>
      <point x="532" y="413" type="line"/>
      <point x="59" y="413" type="line"/>
    </contour>
    <contour>
      <point x="30" y="313" type="line"/>
      <point x="503" y="313" type="line"/>
      <point x="512" y="343" type="line"/>
      <point x="39" y="343" type="line"/>
    </contour>
    <component base="C" xOffset="43"/>
  </outline>
</glyph>
<glyph name="trademark" format="2">
  <advance width="716"/>
  <unicode hex="2122"/>
  <outline>
    <contour>
      <point x="150" y="407" type="line" name="_corner01"/>
      <point x="238" y="407" type="line" name="_corner00"/>
      <point x="322" y="701" type="line"/>
      <point x="234" y="701" type="line"/>
    </contour>
    <contour>
      <point x="120" y="576" type="line"/>
      <point x="127" y="573" type="line"/>
      <point x="199" y="685" type="line"/>
      <point x="338" y="685" type="line"/>
      <point x="360" y="576" type="line"/>
      <point x="370" y="576" type="line"/>
      <point x="402" y="701" type="line"/>
      <point x="139" y="701" type="line"/>
    </contour>
    <contour>
      <point x="376" y="407" type="line" name="_corner07"/>
      <point x="388" y="407" type="line" name="_corner02"/>
      <point x="464" y="676" type="line"/>
      <point x="470" y="676" type="line"/>
      <point x="495" y="407" type="line"/>
      <point x="567" y="407" type="line"/>
      <point x="704" y="673" type="line"/>
      <point x="708" y="673" type="line"/>
      <point x="635" y="407" type="line" name="_corner03"/>
      <point x="722" y="407" type="line" name="_corner04"/>
      <point x="806" y="701" type="line" name="_corner05"/>
      <point x="708" y="701" type="line"/>
      <point x="585" y="466" type="line"/>
      <point x="579" y="466" type="line"/>
      <point x="558" y="701" type="line"/>
      <point x="460" y="701" type="line" name="_corner06"/>
    </contour>
  </outline>
</glyph>
<glyph name="minus" format="2">
  <advance width="458"/>
  <unicode hex="2212"/>
  <outline>
    <contour>
      <point x="30" y="207" type="line"/>
      <point x="406" y="207" type="line"/>
      <point x="422" y="265" type="line"/>
      <point x="46" y="265" type="line"/>
    </contour>
  </outline>
</glyph>
<glyph name="approxequal" format="2">
  <advance width="536"/>
  <unicode hex="2248"/>
  <outline>
    <contour>
      <point x="85" y="246" type="line"/>
      <point x="115" y="276"/>
      <point x="156" y="295"/>
      <point x="191" y="295" type="curve" smooth="yes"/>
      <point x="248" y="295"/>
      <point x="298" y="248"/>
      <point x="360" y="248" type="curve" smooth="yes"/>
      <point x="411" y="248"/>
      <point x="475" y="279"/>
      <point x="513" y="319" type="curve"/>
      <point x="483" y="352" type="line"/>
      <point x="455" y="324"/>
      <point x="415" y="303"/>
      <point x="377" y="303" type="curve" smooth="yes"/>
      <point x="319" y="303"/>
      <point x="271" y="350"/>
      <point x="208" y="350" type="curve" smooth="yes"/>
      <point x="158" y="350"/>
      <point x="90" y="320"/>
      <point x="51" y="280" type="curve"/>
    </contour>
    <contour>
      <point x="52" y="119" type="line"/>
      <point x="82" y="149"/>
      <point x="123" y="168"/>
      <point x="158" y="168" type="curve" smooth="yes"/>
      <point x="215" y="168"/>
      <point x="265" y="121"/>
      <point x="327" y="121" type="curve" smooth="yes"/>
      <point x="378" y="121"/>
      <point x="442" y="152"/>
      <point x="480" y="192" type="curve"/>
      <point x="450" y="225" type="line"/>
      <point x="422" y="197"/>
      <point x="382" y="176"/>
      <point x="344" y="176" type="curve" smooth="yes"/>
      <point x="286" y="176"/>
      <point x="238" y="223"/>
      <point x="175" y="223" type="curve" smooth="yes"/>
      <point x="125" y="223"/>
      <point x="57" y="193"/>
      <point x="18" y="153" type="curve"/>
    </contour>
  </outline>
</glyph>
<glyph name="notequal" format="2">
  <advance width="464"/>
  <unicode hex="2260"/>
  <outline>
    <contour>
      <point x="121" y="41" type="line"/>
      <point x="175" y="26" type="line"/>
      <point x="329" y="423" type="line"/>
      <point x="276" y="438" type="line"/>
    </contour>
    <component base="equal"/>
  </outline>
</glyph>
<glyph name="fi" format="2">
  <advance width="728"/>
  <unicode hex="FB01"/>
  <anchor x="611" y="0" name="bottom"/>
  <anchor x="536" y="0" name="caret_1"/>
  <anchor x="855" y="10" name="ogonek"/>
  <anchor x="365" y="750" name="top"/>
  <outline>
    <contour>
      <point x="-306" y="-168" type="line"/>
      <point x="-253" y="-202"/>
      <point x="-145" y="-263"/>
      <point x="-89" y="-263" type="curve"/>
      <point x="47" y="-190"/>
      <point x="184" y="-29"/>
      <point x="195" y="-6" type="curve"/>
      <point x="220" y="81"/>
      <point x="301" y="358"/>
      <point x="327" y="445" type="curve"/>
      <point x="646" y="443" type="line"/>
      <point x="685" y="453" type="line"/>
      <point x="691" y="496" type="line"/>
      <point x="332" y="480" type="line"/>
      <point x="391" y="655" type="line"/>
      <point x="402" y="664"/>
      <point x="442" y="676"/>
      <point x="497" y="676" type="curve" smooth="yes"/>
      <point x="605" y="676"/>
      <point x="688" y="626"/>
      <point x="701" y="623" type="curve"/>
      <point x="783" y="727" type="line"/>
      <point x="764" y="748"/>
      <point x="681" y="762"/>
      <point x="527" y="762" type="curve"/>
      <point x="438" y="719"/>
      <point x="324" y="651"/>
      <point x="201" y="493" type="curve" smooth="yes"/>
      <point x="194" y="484" type="line"/>
      <point x="125" y="483" type="line"/>
      <point x="125" y="443" type="line"/>
      <point x="183" y="450" type="line"/>
      <point x="97" y="124" type="line" smooth="yes"/>
      <point x="86" y="82"/>
      <point x="39" y="-93"/>
      <point x="4" y="-172" type="curve"/>
      <point x="-4" y="-175"/>
      <point x="-10" y="-175"/>
      <point x="-20" y="-174" type="curve" smooth="yes"/>
      <point x="-103" y="-167"/>
      <point x="-152" y="-119"/>
      <point x="-175" y="-105" type="curve"/>
    </contour>
    <contour>
      <point x="543" y="444" type="line"/>
      <point x="408" y="24" type="line"/>
      <point x="417" y="1"/>
      <point x="438" y="-19"/>
      <point x="460" y="-30" type="curve"/>
      <point x="546" y="15" type="line"/>
      <point x="701" y="489" type="line"/>
      <point x="691" y="496" type="line"/>
    </contour>
  </outline>
</glyph>
<glyph name="_corner.rightSerif.cap" format="2">
  <advance width="100"/>
  <outline>
    <contour>
      <point x="-20" y="0" type="move"/>
      <point x="95" y="0" type="line"/>
      <point x="95" y="10" type="line"/>
      <point x="0" y="28" type="line"/>
    </contour>
  </outline>
</glyph>
<glyph name="_corner.rightSerif" format="2">
  <advance width="100"/>
  <outline>
    <contour>
      <point x="-20" y="0" type="move"/>
      <point x="88" y="0" type="line"/>
      <point x="88" y="12" type="line"/>
      <point x="0" y="24" type="line"/>
    </contour>
  </outline>
</glyph>
<glyph name="acutecomb.case" format="2">
  <advance width="400"/>
  <anchor x="216" y="520" name="_top"/>
  <outline>
    <contour>
      <point x="156" y="566" type="line"/>
      <point x="352" y="700" type="line"/>
      <point x="338" y="726" type="line"/>
      <point x="224" y="720" type="line"/>
      <point x="146" y="576" type="line"/>
    </contour>
  </outline>
</glyph>
<glyph name="c_t.dlig" format="2">
  <advance width="736"/>
  <anchor x="77" y="0" name="bottom_1"/>
  <anchor x="377" y="0" name="bottom_2"/>
  <anchor x="300" y="0" name="caret_1"/>
  <anchor x="223" y="480" name="top_1"/>
  <anchor x="523" y="480" name="top_2"/>
  <outline>
    <contour>
      <point x="666" y="583" type="curve"/>
      <point x="730" y="628" type="line"/>
      <point x="689" y="628"/>
      <point x="344" y="573"/>
      <point x="344" y="484" type="curve" smooth="yes"/>
      <point x="344" y="443"/>
      <point x="397" y="447"/>
      <point x="430" y="446" type="curve"/>
      <point x="430" y="452" type="line"/>
      <point x="399" y="455"/>
      <point x="388" y="457"/>
      <point x="385" y="483" type="curve"/>
      <point x="385" y="557"/>
      <point x="591" y="583"/>
    </contour>
    <component base="c"/>
    <component base="t" xOffset="412"/>
  </outline>
</glyph>
<glyph name="caroncomb.alt" format="2">
  <advance width="400"/>
  <anchor x="200" y="490" name="_topright"/>
  <outline>
    <contour>
      <point x="290" y="544" type="line"/>
      <point x="362" y="596"/>
      <point x="392" y="648"/>
      <point x="412" y="744" type="curve"/>
      <point x="396" y="758" type="line"/>
      <point x="300" y="748" type="line"/>
      <point x="292" y="720"/>
      <point x="286" y="680"/>
      <point x="288" y="644" type="curve"/>
      <point x="356" y="636" type="line"/>
      <point x="344" y="656" type="line"/>
      <point x="332" y="620"/>
      <point x="314" y="584"/>
      <point x="278" y="560" type="curve"/>
    </contour>
  </outline>
</glyph>
<glyph name="caroncomb.case" format="2">
  <advance width="400"/>
  <anchor x="216" y="520" name="_top"/>
  <outline>
    <contour>
      <point x="192" y="568" type="line"/>
      <point x="212" y="568" type="line"/>
      <point x="365" y="719" type="line"/>
      <point x="359" y="726" type="line"/>
      <point x="220" y="660" type="line"/>
      <point x="212" y="660" type="line"/>
      <point x="105" y="726" type="line"/>
      <point x="97" y="722" type="line"/>
    </contour>
  </outline>
</glyph>
<glyph name="circumflexcomb.case" format="2">
  <advance width="400"/>
  <anchor x="216" y="520" name="_top"/>
  <outline>
    <contour>
      <point x="84" y="568" type="line"/>
      <point x="230" y="632" type="line"/>
      <point x="238" y="632" type="line"/>
      <point x="340" y="568" type="line"/>
      <point x="348" y="572" type="line"/>
      <point x="260" y="722" type="line"/>
      <point x="240" y="722" type="line"/>
      <point x="78" y="575" type="line"/>
    </contour>
  </outline>
</glyph>
<glyph name="f_b.liga" format="2">
  <advance width="987"/>
  <anchor x="136" y="0" name="bottom"/>
  <anchor x="82" y="0" name="bottom_1"/>
  <anchor x="382" y="0" name="bottom_2"/>
  <anchor x="305" y="0" name="caret_1"/>
  <anchor x="687" y="240" name="center"/>
  <anchor x="365" y="750" name="top"/>
  <anchor x="311" y="750" name="top_1"/>
  <anchor x="611" y="750" name="top_2"/>
  <outline>
    <contour>
      <point x="-306" y="-168" type="line"/>
      <point x="-253" y="-202"/>
      <point x="-145" y="-263"/>
      <point x="-89" y="-263" type="curve"/>
      <point x="47" y="-190"/>
      <point x="184" y="-29"/>
      <point x="195" y="-6" type="curve"/>
      <point x="220" y="81"/>
      <point x="300" y="339"/>
      <point x="326" y="426" type="curve"/>
      <point x="422" y="424" type="line"/>
      <point x="461" y="434" type="line"/>
      <point x="464" y="467" type="line"/>
      <point x="331" y="461" type="line"/>
      <point x="380" y="634" type="line"/>
      <point x="391" y="643"/>
      <point x="454" y="655"/>
      <point x="486" y="655" type="curve" smooth="yes"/>
      <point x="502" y="655"/>
      <point x="568" y="646"/>
      <point x="581" y="643" type="curve"/>
      <point x="760" y="718" type="line"/>
      <point x="692" y="750"/>
      <point x="561" y="762"/>
      <point x="527" y="762" type="curve"/>
      <point x="489" y="744"/>
      <point x="216" y="544"/>
      <point x="200" y="489" type="curve" smooth="yes"/>
      <point x="193" y="465" type="line"/>
      <point x="124" y="464" type="line"/>
      <point x="124" y="424" type="line"/>
      <point x="182" y="431" type="line"/>
      <point x="97" y="124" type="line" smooth="yes"/>
      <point x="85" y="82"/>
      <point x="39" y="-93"/>
      <point x="4" y="-172" type="curve"/>
      <point x="-4" y="-175"/>
      <point x="-10" y="-175"/>
      <point x="-20" y="-174" type="curve" smooth="yes"/>
      <point x="-103" y="-167"/>
      <point x="-152" y="-119"/>
      <point x="-175" y="-105" type="curve"/>
    </contour>
    <contour>
      <point x="364" y="37" type="line"/>
      <point x="398" y="20"/>
      <point x="551" y="-19"/>
      <point x="589" y="-14" type="curve"/>
      <point x="744" y="-14"/>
      <point x="977" y="211"/>
      <point x="977" y="374" type="curve" smooth="yes"/>
      <point x="977" y="426"/>
      <point x="954" y="495"/>
      <point x="835" y="506" type="curve"/>
      <point x="788" y="448"/>
      <point x="580" y="153"/>
      <point x="549" y="75" type="curve"/>
      <point x="547" y="75" type="line"/>
      <point x="760" y="718" type="line"/>
      <point x="714" y="718" type="line"/>
      <point x="581" y="643" type="line"/>
      <point x="412" y="73" type="line"/>
      <point x="370" y="60" type="line"/>
    </contour>
    <contour>
      <point x="583" y="60" type="curve"/>
      <point x="585" y="71" type="line"/>
      <point x="614" y="144"/>
      <point x="805" y="421"/>
      <point x="813" y="424" type="curve"/>
      <point x="824" y="421"/>
      <point x="829" y="410"/>
      <point x="829" y="386" type="curve" smooth="yes"/>
      <point x="829" y="301"/>
      <point x="732" y="32"/>
      <point x="684" y="32" type="curve"/>
      <point x="660" y="32"/>
      <point x="608" y="49"/>
    </contour>
  </outline>
</glyph>
<glyph name="f_f.liga" format="2">
  <advance width="795"/>
  <anchor x="136" y="0" name="bottom"/>
  <anchor x="-2438" y="0" name="bottom_1"/>
  <anchor x="-2138" y="0" name="bottom_2"/>
  <anchor x="-2215" y="0" name="caret_1"/>
  <anchor x="365" y="750" name="top"/>
  <anchor x="-2209" y="750" name="top_1"/>
  <anchor x="-1909" y="750" name="top_2"/>
  <outline>
    <contour>
      <point x="-306" y="-168" type="line"/>
      <point x="-253" y="-202"/>
      <point x="-145" y="-263"/>
      <point x="-89" y="-263" type="curve"/>
      <point x="47" y="-190"/>
      <point x="184" y="-29"/>
      <point x="195" y="-6" type="curve"/>
      <point x="220" y="81"/>
      <point x="300" y="339"/>
      <point x="326" y="426" type="curve"/>
      <point x="533" y="419" type="line"/>
      <point x="557" y="444" type="line"/>
      <point x="544" y="465" type="line"/>
      <point x="331" y="461" type="line"/>
      <point x="380" y="634" type="line"/>
      <point x="391" y="643"/>
      <point x="454" y="655"/>
      <point x="486" y="655" type="curve" smooth="yes"/>
      <point x="502" y="655"/>
      <point x="568" y="646"/>
      <point x="581" y="643" type="curve"/>
      <point x="663" y="727" type="line"/>
      <point x="644" y="748"/>
      <point x="561" y="762"/>
      <point x="527" y="762" type="curve"/>
      <point x="489" y="744"/>
      <point x="216" y="544"/>
      <point x="200" y="489" type="curve" smooth="yes"/>
      <point x="193" y="465" type="line"/>
      <point x="124" y="464" type="line"/>
      <point x="124" y="424" type="line"/>
      <point x="182" y="431" type="line"/>
      <point x="97" y="124" type="line" smooth="yes"/>
      <point x="85" y="82"/>
      <point x="39" y="-93"/>
      <point x="4" y="-172" type="curve"/>
      <point x="-4" y="-175"/>
      <point x="-10" y="-175"/>
      <point x="-20" y="-174" type="curve" smooth="yes"/>
      <point x="-103" y="-167"/>
      <point x="-152" y="-119"/>
      <point x="-175" y="-105" type="curve"/>
    </contour>
    <contour>
      <point x="64" y="-186" type="line"/>
      <point x="117" y="-220"/>
      <point x="206" y="-263"/>
      <point x="262" y="-263" type="curve"/>
      <point x="398" y="-190"/>
      <point x="535" y="-29"/>
      <point x="546" y="-6" type="curve"/>
      <point x="571" y="81"/>
      <point x="651" y="339"/>
      <point x="677" y="426" type="curve"/>
      <point x="773" y="424" type="line"/>
      <point x="812" y="434" type="line"/>
      <point x="815" y="467" type="line"/>
      <point x="682" y="461" type="line"/>
      <point x="731" y="634" type="line"/>
      <point x="742" y="643"/>
      <point x="805" y="655"/>
      <point x="837" y="655" type="curve" smooth="yes"/>
      <point x="853" y="655"/>
      <point x="919" y="646"/>
      <point x="932" y="643" type="curve"/>
      <point x="1014" y="727" type="line"/>
      <point x="995" y="748"/>
      <point x="912" y="762"/>
      <point x="878" y="762" type="curve"/>
      <point x="840" y="744"/>
      <point x="567" y="544"/>
      <point x="551" y="489" type="curve" smooth="yes"/>
      <point x="544" y="465" type="line"/>
      <point x="475" y="464" type="line"/>
      <point x="475" y="424" type="line"/>
      <point x="533" y="431" type="line"/>
      <point x="448" y="124" type="line" smooth="yes"/>
      <point x="436" y="82"/>
      <point x="390" y="-93"/>
      <point x="355" y="-172" type="curve"/>
      <point x="347" y="-175"/>
      <point x="341" y="-175"/>
      <point x="331" y="-174" type="curve" smooth="yes"/>
      <point x="248" y="-167"/>
      <point x="199" y="-119"/>
      <point x="176" y="-105" type="curve"/>
    </contour>
  </outline>
</glyph>
<glyph name="f_i.liga" format="2">
  <advance width="728"/>
  <anchor x="611" y="0" name="bottom"/>
  <anchor x="-2464" y="0" name="bottom_1"/>
  <anchor x="-2164" y="0" name="bottom_2"/>
  <anchor x="-2241" y="0" name="caret_1"/>
  <anchor x="480" y="0" name="ogonek"/>
  <anchor x="365" y="750" name="top"/>
  <anchor x="-2235" y="750" name="top_1"/>
  <anchor x="-1935" y="750" name="top_2"/>
  <outline>
    <contour>
      <point x="-306" y="-168" type="line"/>
      <point x="-253" y="-202"/>
      <point x="-145" y="-263"/>
      <point x="-89" y="-263" type="curve"/>
      <point x="47" y="-190"/>
      <point x="184" y="-29"/>
      <point x="195" y="-6" type="curve"/>
      <point x="220" y="81"/>
      <point x="300" y="349"/>
      <point x="326" y="436" type="curve"/>
      <point x="422" y="434" type="line"/>
      <point x="661" y="445" type="line"/>
      <point x="701" y="506" type="line"/>
      <point x="331" y="471" type="line"/>
      <point x="380" y="634" type="line"/>
      <point x="391" y="643"/>
      <point x="454" y="655"/>
      <point x="486" y="655" type="curve" smooth="yes"/>
      <point x="502" y="655"/>
      <point x="568" y="646"/>
      <point x="581" y="643" type="curve"/>
      <point x="663" y="727" type="line"/>
      <point x="644" y="748"/>
      <point x="561" y="762"/>
      <point x="527" y="762" type="curve"/>
      <point x="489" y="744"/>
      <point x="226" y="540"/>
      <point x="200" y="489" type="curve" smooth="yes"/>
      <point x="193" y="475" type="line"/>
      <point x="124" y="474" type="line"/>
      <point x="124" y="434" type="line"/>
      <point x="182" y="441" type="line"/>
      <point x="97" y="124" type="line" smooth="yes"/>
      <point x="86" y="82"/>
      <point x="39" y="-93"/>
      <point x="4" y="-172" type="curve"/>
      <point x="-4" y="-175"/>
      <point x="-10" y="-175"/>
      <point x="-20" y="-174" type="curve" smooth="yes"/>
      <point x="-103" y="-167"/>
      <point x="-152" y="-119"/>
      <point x="-175" y="-105" type="curve"/>
    </contour>
    <contour>
      <point x="553" y="454" type="line"/>
      <point x="408" y="24" type="line"/>
      <point x="417" y="1"/>
      <point x="438" y="-19"/>
      <point x="460" y="-30" type="curve"/>
      <point x="546" y="15" type="line"/>
      <point x="711" y="499" type="line"/>
      <point x="701" y="506" type="line"/>
    </contour>
  </outline>
</glyph>
<glyph name="f_l.liga" format="2">
  <advance width="730"/>
  <anchor x="136" y="0" name="bottom"/>
  <anchor x="-2438" y="0" name="bottom_1"/>
  <anchor x="-2138" y="0" name="bottom_2"/>
  <anchor x="-2215" y="0" name="caret_1"/>
  <anchor x="601" y="375" name="center"/>
  <anchor x="365" y="750" name="top"/>
  <anchor x="-2209" y="750" name="top_1"/>
  <anchor x="-1909" y="750" name="top_2"/>
  <anchor x="888" y="750" name="topright"/>
  <outline>
    <contour>
      <point x="620" y="704" type="line"/>
      <point x="415" y="37" type="line"/>
      <point x="435" y="9"/>
      <point x="446" y="-9"/>
      <point x="466" y="-15" type="curve"/>
      <point x="558" y="22" type="line"/>
      <point x="766" y="713" type="line"/>
      <point x="756" y="720" type="line"/>
    </contour>
    <contour>
      <point x="-306" y="-168" type="line"/>
      <point x="-253" y="-202"/>
      <point x="-145" y="-263"/>
      <point x="-89" y="-263" type="curve"/>
      <point x="47" y="-190"/>
      <point x="184" y="-29"/>
      <point x="195" y="-6" type="curve"/>
      <point x="220" y="81"/>
      <point x="300" y="339"/>
      <point x="326" y="426" type="curve"/>
      <point x="422" y="424" type="line"/>
      <point x="461" y="434" type="line"/>
      <point x="464" y="467" type="line"/>
      <point x="331" y="461" type="line"/>
      <point x="380" y="634" type="line"/>
      <point x="391" y="643"/>
      <point x="454" y="655"/>
      <point x="486" y="655" type="curve" smooth="yes"/>
      <point x="502" y="655"/>
      <point x="585" y="637"/>
      <point x="598" y="634" type="curve"/>
      <point x="756" y="720" type="line"/>
      <point x="688" y="752"/>
      <point x="561" y="762"/>
      <point x="527" y="762" type="curve"/>
      <point x="489" y="744"/>
      <point x="216" y="544"/>
      <point x="200" y="489" type="curve" smooth="yes"/>
      <point x="193" y="465" type="line"/>
      <point x="124" y="464" type="line"/>
      <point x="124" y="424" type="line"/>
      <point x="182" y="431" type="line"/>
      <point x="97" y="124" type="line" smooth="yes"/>
      <point x="85" y="82"/>
      <point x="39" y="-93"/>
      <point x="4" y="-172" type="curve"/>
      <point x="-4" y="-175"/>
      <point x="-10" y="-175"/>
      <point x="-20" y="-174" type="curve" smooth="yes"/>
      <point x="-103" y="-167"/>
      <point x="-152" y="-119"/>
      <point x="-175" y="-105" type="curve"/>
    </contour>
  </outline>
</glyph>
<glyph name="f_t.liga" format="2">
  <advance width="758"/>
  <anchor x="136" y="0" name="bottom"/>
  <anchor x="110" y="0" name="bottom_1"/>
  <anchor x="410" y="0" name="bottom_2"/>
  <anchor x="333" y="0" name="caret_1"/>
  <anchor x="569" y="240" name="center"/>
  <anchor x="365" y="750" name="top"/>
  <anchor x="339" y="750" name="top_1"/>
  <anchor x="639" y="750" name="top_2"/>
  <anchor x="938" y="700" name="topright"/>
  <outline>
    <contour>
      <point x="-306" y="-168" type="line"/>
      <point x="-253" y="-202"/>
      <point x="-145" y="-263"/>
      <point x="-89" y="-263" type="curve"/>
      <point x="47" y="-190"/>
      <point x="184" y="-29"/>
      <point x="195" y="-6" type="curve"/>
      <point x="220" y="81"/>
      <point x="304" y="368"/>
      <point x="330" y="455" type="curve"/>
      <point x="485" y="456" type="line"/>
      <point x="528" y="455" type="line"/>
      <point x="411" y="107" type="line"/>
      <point x="396" y="33"/>
      <point x="467" y="-7"/>
      <point x="545" y="-13" type="curve"/>
      <point x="604" y="18"/>
      <point x="626" y="31"/>
      <point x="690" y="73" type="curve"/>
      <point x="685" y="99" type="line"/>
      <point x="663" y="83"/>
      <point x="616" y="58"/>
      <point x="594" y="50" type="curve"/>
      <point x="567" y="47"/>
      <point x="543" y="71"/>
      <point x="560" y="127" type="curve" smooth="yes"/>
      <point x="669" y="451" type="line"/>
      <point x="756" y="454" type="line"/>
      <point x="795" y="457" type="line"/>
      <point x="804" y="495" type="line"/>
      <point x="677" y="496" type="line"/>
      <point x="713" y="627" type="line"/>
      <point x="702" y="628" type="line"/>
      <point x="568" y="578" type="line"/>
      <point x="540" y="496" type="line"/>
      <point x="468" y="495" type="line"/>
      <point x="335" y="490" type="line"/>
      <point x="380" y="634" type="line"/>
      <point x="391" y="643"/>
      <point x="454" y="655"/>
      <point x="486" y="655" type="curve" smooth="yes"/>
      <point x="502" y="655"/>
      <point x="568" y="646"/>
      <point x="581" y="643" type="curve"/>
      <point x="663" y="727" type="line"/>
      <point x="644" y="748"/>
      <point x="561" y="762"/>
      <point x="527" y="762" type="curve"/>
      <point x="489" y="744"/>
      <point x="222" y="549"/>
      <point x="201" y="491" type="curve"/>
      <point x="132" y="490" type="line"/>
      <point x="132" y="450" type="line"/>
      <point x="190" y="457" type="line"/>
      <point x="97" y="124" type="line" smooth="yes"/>
      <point x="85" y="82"/>
      <point x="39" y="-93"/>
      <point x="4" y="-172" type="curve"/>
      <point x="-4" y="-175"/>
      <point x="-10" y="-175"/>
      <point x="-20" y="-174" type="curve" smooth="yes"/>
      <point x="-103" y="-167"/>
      <point x="-152" y="-119"/>
      <point x="-175" y="-105" type="curve"/>
    </contour>
  </outline>
</glyph>
<glyph name="gravecomb.case" format="2">
  <advance width="400"/>
  <anchor x="216" y="520" name="_top"/>
  <outline>
    <contour>
      <point x="256" y="566" type="line"/>
      <point x="268" y="571" type="line"/>
      <point x="248" y="716" type="line"/>
      <point x="136" y="728" type="line"/>
      <point x="124" y="704" type="line"/>
    </contour>
  </outline>
</glyph>
<glyph name="hungarumlautcomb.case" format="2">
  <advance width="400"/>
  <anchor x="216" y="520" name="_top"/>
  <outline>
    <contour>
      <point x="131" y="566" type="line"/>
      <point x="299" y="704" type="line"/>
      <point x="287" y="728" type="line"/>
      <point x="191" y="716" type="line"/>
      <point x="119" y="574" type="line"/>
    </contour>
    <contour>
      <point x="247" y="566" type="line"/>
      <point x="449" y="698" type="line"/>
      <point x="437" y="724" type="line"/>
      <point x="343" y="720" type="line"/>
      <point x="237" y="576" type="line"/>
    </contour>
  </outline>
</glyph>
<glyph name="macroncomb.case" format="2">
  <advance width="400"/>
  <anchor x="216" y="520" name="_top"/>
  <outline>
    <contour>
      <point x="98" y="621" type="line"/>
      <point x="362" y="621" type="line"/>
      <point x="366" y="657" type="line"/>
      <point x="102" y="657" type="line"/>
    </contour>
  </outline>
</glyph>
<glyph name="ringcomb.case" format="2">
  <advance width="400"/>
  <anchor x="216" y="520" name="_top"/>
  <outline>
    <contour>
      <point x="233" y="556" type="curve"/>
      <point x="281" y="562"/>
      <point x="321" y="604"/>
      <point x="321" y="644" type="curve" smooth="yes"/>
      <point x="321" y="685"/>
      <point x="281" y="716"/>
      <point x="225" y="716" type="curve"/>
      <point x="177" y="710"/>
      <point x="136" y="668"/>
      <point x="136" y="628" type="curve" smooth="yes"/>
      <point x="136" y="587"/>
      <point x="176" y="556"/>
    </contour>
    <contour>
      <point x="224" y="578" type="curve" smooth="yes"/>
      <point x="192" y="578"/>
      <point x="172" y="599"/>
      <point x="172" y="632" type="curve" smooth="yes"/>
      <point x="172" y="670"/>
      <point x="195" y="694"/>
      <point x="232" y="694" type="curve" smooth="yes"/>
      <point x="265" y="694"/>
      <point x="286" y="673"/>
      <point x="286" y="640" type="curve" smooth="yes"/>
      <point x="286" y="602"/>
      <point x="262" y="578"/>
    </contour>
  </outline>
</glyph>
<glyph name="s_t.dlig" format="2">
  <advance width="667"/>
  <anchor x="77" y="0" name="bottom_1"/>
  <anchor x="377" y="0" name="bottom_2"/>
  <anchor x="300" y="0" name="caret_1"/>
  <anchor x="223" y="480" name="top_1"/>
  <anchor x="523" y="480" name="top_2"/>
  <outline>
    <contour>
      <point x="606" y="583" type="curve"/>
      <point x="670" y="628" type="line"/>
      <point x="629" y="628"/>
      <point x="284" y="573"/>
      <point x="284" y="484" type="curve" smooth="yes"/>
      <point x="284" y="443"/>
      <point x="317" y="447"/>
      <point x="350" y="446" type="curve"/>
      <point x="350" y="452" type="line"/>
      <point x="319" y="455"/>
      <point x="328" y="457"/>
      <point x="325" y="483" type="curve"/>
      <point x="325" y="557"/>
      <point x="531" y="583"/>
    </contour>
    <component base="s"/>
    <component base="t" xOffset="343"/>
  </outline>
</glyph>
<glyph name="t_t.liga" format="2">
  <advance width="733"/>
  <anchor x="139" y="0" name="bottom"/>
  <anchor x="22" y="0" name="bottom_1"/>
  <anchor x="322" y="0" name="bottom_2"/>
  <anchor x="245" y="0" name="caret_1"/>
  <anchor x="192" y="240" name="center"/>
  <anchor x="95" y="240" name="center_1"/>
  <anchor x="395" y="240" name="center_2"/>
  <anchor x="265" y="480" name="top"/>
  <anchor x="168" y="480" name="top_1"/>
  <anchor x="468" y="480" name="top_2"/>
  <anchor x="561" y="700" name="topright"/>
  <anchor x="681" y="750" name="topright_1"/>
  <anchor x="681" y="750" name="topright_2"/>
  <outline>
    <contour>
      <point x="34" y="107" type="line"/>
      <point x="19" y="33"/>
      <point x="90" y="-7"/>
      <point x="168" y="-13" type="curve"/>
      <point x="227" y="18"/>
      <point x="249" y="31"/>
      <point x="313" y="73" type="curve"/>
      <point x="308" y="99" type="line"/>
      <point x="286" y="83"/>
      <point x="239" y="58"/>
      <point x="217" y="50" type="curve"/>
      <point x="190" y="47"/>
      <point x="166" y="71"/>
      <point x="183" y="127" type="curve" smooth="yes"/>
      <point x="292" y="451" type="line"/>
      <point x="503" y="455" type="line"/>
      <point x="386" y="107" type="line"/>
      <point x="371" y="33"/>
      <point x="442" y="-7"/>
      <point x="520" y="-13" type="curve"/>
      <point x="579" y="18"/>
      <point x="601" y="31"/>
      <point x="665" y="73" type="curve"/>
      <point x="660" y="99" type="line"/>
      <point x="638" y="83"/>
      <point x="591" y="58"/>
      <point x="569" y="50" type="curve"/>
      <point x="542" y="47"/>
      <point x="518" y="71"/>
      <point x="535" y="127" type="curve" smooth="yes"/>
      <point x="644" y="451" type="line"/>
      <point x="731" y="454" type="line"/>
      <point x="770" y="457" type="line"/>
      <point x="779" y="495" type="line"/>
      <point x="652" y="496" type="line"/>
      <point x="688" y="627" type="line"/>
      <point x="677" y="628" type="line"/>
      <point x="543" y="578" type="line"/>
      <point x="515" y="496" type="line"/>
      <point x="300" y="496" type="line"/>
      <point x="336" y="627" type="line"/>
      <point x="325" y="628" type="line"/>
      <point x="191" y="578" type="line"/>
      <point x="163" y="496" type="line"/>
      <point x="78" y="495" type="line"/>
      <point x="74" y="457" type="line"/>
      <point x="151" y="455" type="line"/>
    </contour>
  </outline>
</glyph>
